<?xml version="1.0" encoding="UTF-8" standalone="no"?>
<!-- Created with Inkscape (http://www.inkscape.org/) -->

<svg
   xmlns:dc="http://purl.org/dc/elements/1.1/"
   xmlns:cc="http://creativecommons.org/ns#"
   xmlns:rdf="http://www.w3.org/1999/02/22-rdf-syntax-ns#"
   xmlns:svg="http://www.w3.org/2000/svg"
   xmlns="http://www.w3.org/2000/svg"
   xmlns:sodipodi="http://sodipodi.sourceforge.net/DTD/sodipodi-0.dtd"
   xmlns:inkscape="http://www.inkscape.org/namespaces/inkscape"
   width="600mm"
   height="400mm"
   viewBox="0 0 600 400"
   version="1.1"
   id="svg8"
   inkscape:version="0.92.2 (unknown)"
   sodipodi:docname="First Gears.svg">
  <sodipodi:namedview
     id="base"
     pagecolor="#ffffff"
     bordercolor="#666666"
     borderopacity="1.0"
     inkscape:pageopacity="0.0"
     inkscape:pageshadow="2"
     inkscape:zoom="1.28"
     inkscape:cx="176.52748"
     inkscape:cy="-374.94509"
     inkscape:document-units="mm"
     inkscape:current-layer="svg8"
     showgrid="false"
     inkscape:window-width="1841"
     inkscape:window-height="1025"
     inkscape:window-x="79"
     inkscape:window-y="27"
     inkscape:window-maximized="1" />
  <defs
     id="defs2" />
  <metadata
     id="metadata5">
    <rdf:RDF>
      <cc:Work
         rdf:about="">
        <dc:format>image/svg+xml</dc:format>
        <dc:type
           rdf:resource="http://purl.org/dc/dcmitype/StillImage" />
        <dc:title></dc:title>
      </cc:Work>
    </rdf:RDF>
  </metadata>
  <g
     id="layer1"
     inkscape:groupmode="layer"
     inkscape:label="Layer 1"
     transform="translate(0,103)" />
  <g
     id="g863"
     inkscape:label="Gear9"
     transform="translate(85.992618,280.7445)">
    <g
       id="g953"
       inkscape:label="Gear9"
       transform="translate(-0.46654244,-31.416358)" />
  </g>
  <flowRoot
     style="font-style:normal;font-variant:normal;font-weight:normal;font-stretch:normal;font-size:120px;line-height:125%;font-family:Loma;-inkscape-font-specification:Loma;letter-spacing:0px;word-spacing:0px;fill:#000000;fill-opacity:1;stroke:none;stroke-width:1px;stroke-linecap:butt;stroke-linejoin:miter;stroke-opacity:1"
     id="flowRoot1257"
     xml:space="preserve"
     transform="translate(0,103)"><flowRegion
       id="flowRegion1259"><rect
         y="584.66254"
         x="85"
         height="125.71429"
         width="45"
         id="rect1261" /></flowRegion><flowPara
       id="flowPara1263" /></flowRoot>  <g
     id="g2332">
    <g
       id="g1065"
       inkscape:label="Gear22"
       transform="translate(35.72979,31.139612)">
      <path
         id="path1061"
         style="fill:none;stroke:#000000;stroke-width:0.26458332"
         d="m 14.9366,-1.2923 0.50279,-0.0435 1.01023,0.1593 1.53347,0.64733 V 0.52917 L 16.44962,1.1765 15.43939,1.3358 14.9366,1.2923 l -0.24096,1.67587 0.49468,0.09992 0.92443,0.43746 1.28898,1.05314 -0.29817,1.01547 -1.65373,0.18908 -1.01418,-0.13177 -0.47017,-0.18339 -0.70335,1.5401 0.4465,0.23524 0.76373,0.68018 0.94007,1.37363 -0.57218,0.89033 -1.64002,-0.28449 -0.93598,-0.41216 -0.39946,-0.30842 -1.10874,1.27956 0.36213,0.3515 0.54117,0.8678 0.51499,1.58283 L 11.3765,13.93725 9.88307,13.20223 9.10112,12.54308 8.80473,12.1346 7.3804,13.04996 7.62884,13.48925 7.9036,14.47436 7.9518,16.13817 6.9891,16.57782 5.76324,15.45183 5.19867,14.59908 5.02937,14.12365 3.40485,14.60065 3.51946,15.09213 3.50555,16.11475 3.08305,17.72474 2.03548,17.87536 1.1765,16.44962 0.87505,15.47234 0.84655,14.96848 h -1.6931 l -0.0285,0.50386 -0.30145,0.97728 -0.85898,1.42574 -1.04757,-0.15062 -0.4225,-1.60999 -0.01391,-1.02262 0.11461,-0.49148 -1.62452,-0.477 -0.1693,0.47543 -0.56457,0.85275 -1.22586,1.12599 -0.9627,-0.43965 0.0482,-1.66381 0.27476,-0.98511 0.24844,-0.43929 -1.42433,-0.91536 -0.29639,0.40848 -0.78195,0.65915 -1.49343,0.73502 -0.79984,-0.69307 0.51499,-1.58283 0.54117,-0.8678 0.36213,-0.3515 -1.10874,-1.27956 -0.39946,0.30842 -0.93598,0.41216 -1.64002,0.28449 -0.57218,-0.89033 0.94007,-1.37363 0.76373,-0.68018 0.4465,-0.23524 -0.70335,-1.5401 -0.47017,0.18339 -1.01418,0.13177 -1.65373,-0.18908 -0.29817,-1.01547 1.28898,-1.05314 0.92443,-0.43746 0.49468,-0.09992 -0.24096,-1.67587 -0.50279,0.0435 -1.01023,-0.1593 -1.53347,-0.64733 v -1.05834 l 1.53347,-0.64733 1.01023,-0.1593 0.50279,0.0435 0.24096,-1.67587 -0.49468,-0.09992 -0.92443,-0.43746 -1.28898,-1.05314 0.29817,-1.01547 1.65373,-0.18908 1.01418,0.13177 0.47017,0.18339 0.70335,-1.5401 -0.4465,-0.23524 -0.76373,-0.68018 -0.94007,-1.37363 0.57218,-0.89033 1.64002,0.28449 0.93598,0.41216 0.39946,0.30842 1.10874,-1.27956 -0.36213,-0.3515 -0.54117,-0.8678 -0.51499,-1.58283 0.79984,-0.69307 1.49343,0.73502 0.78195,0.65915 0.29639,0.40848 1.42433,-0.91536 -0.24844,-0.43929 -0.27476,-0.98511 -0.0482,-1.66381 0.9627,-0.43965 1.22586,1.12599 0.56457,0.85275 0.1693,0.47543 1.62452,-0.477 -0.11461,-0.49148 0.01391,-1.02262 0.4225,-1.60999 1.04757,-0.15062 0.85898,1.42574 0.30145,0.97728 0.0285,0.50386 h 1.6931 l 0.0285,-0.50386 0.30145,-0.97728 0.85898,-1.42574 1.04757,0.15062 0.4225,1.60999 0.01391,1.02262 -0.11461,0.49148 1.62452,0.477 0.1693,-0.47543 0.56457,-0.85275 1.22586,-1.12599 0.9627,0.43965 -0.0482,1.66381 -0.27476,0.98511 -0.24844,0.43929 1.42433,0.91536 0.29639,-0.40848 0.78195,-0.65915 1.49343,-0.73502 0.79984,0.69307 -0.51499,1.58283 -0.54117,0.8678 -0.36213,0.3515 1.10874,1.27956 0.39946,-0.30842 0.93598,-0.41216 1.64002,-0.28449 0.57218,0.89033 -0.94007,1.37363 -0.76373,0.68018 -0.4465,0.23524 0.70335,1.5401 0.47017,-0.18339 1.01418,-0.13177 1.65373,0.18908 0.29817,1.01547 -1.28898,1.05314 -0.92443,0.43746 -0.49468,0.09992 z"
         inkscape:connector-curvature="0" />
      <circle
         id="path1063"
         style="fill:none;stroke:#000000;stroke-width:0.26458332"
         cx="0"
         cy="0"
         r="2.5" />
    </g>
    <g
       transform="translate(15.234363,-13.796783)"
       id="text1028-3-2"
       style="font-style:normal;font-variant:normal;font-weight:normal;font-stretch:normal;font-size:31.75px;line-height:125%;font-family:Loma;-inkscape-font-specification:Loma;letter-spacing:0px;word-spacing:0px;fill:#008800;fill-opacity:1;stroke:none;stroke-width:0.26458332px;stroke-linecap:butt;stroke-linejoin:miter;stroke-opacity:1"
       aria-label="MeG1">
      <path
         id="path2183"
         style="font-size:2.82222223px;fill:#008800;fill-opacity:1;stroke-width:0.26458332px"
         d="m 17.026129,38.265602 v -1.998155 h 0.248047 l 0.715202,1.814876 0.715202,-1.814876 h 0.248047 v 1.998155 H 18.70458 v -1.328429 l -0.515386,1.328429 h -0.399631 l -0.515387,-1.328429 v 1.328429 z"
         inkscape:connector-curvature="0" />
      <path
         id="path2185"
         style="font-size:2.82222223px;fill:#008800;fill-opacity:1;stroke-width:0.26458332px"
         d="m 19.538293,37.598632 q 0.0028,0.135047 0.04134,0.232888 0.03996,0.09646 0.103353,0.148828 0.06477,0.05099 0.136426,0.07441 0.07166,0.02205 0.152962,0.02205 0.150206,0 0.248047,-0.07028 0.09784,-0.07166 0.137804,-0.195681 h 0.256315 q -0.04134,0.216352 -0.212218,0.343131 -0.170877,0.12678 -0.431326,0.12678 -0.332107,0 -0.515386,-0.192926 -0.181901,-0.194303 -0.181901,-0.540191 0,-0.348643 0.180523,-0.560861 0.180523,-0.212218 0.502984,-0.212218 0.321082,0 0.491959,0.212218 0.172255,0.21084 0.172255,0.611849 z m 0.819933,-0.20395 q -0.0041,-0.05512 -0.01516,-0.104731 -0.01102,-0.04961 -0.03996,-0.108865 -0.02756,-0.06063 -0.0689,-0.101975 -0.04134,-0.04272 -0.112999,-0.07166 -0.07028,-0.02894 -0.16123,-0.02894 -0.170877,0 -0.28801,0.122646 -0.117134,0.122645 -0.128158,0.293522 z"
         inkscape:connector-curvature="0" />
      <path
         id="path2187"
         style="font-size:2.82222223px;fill:#008800;fill-opacity:1;stroke-width:0.26458332px"
         d="m 21.129927,37.243098 q 0,0.100597 0.01929,0.203949 0.02067,0.101975 0.07166,0.212218 0.05099,0.110243 0.12678,0.194304 0.07579,0.08406 0.199815,0.139182 0.125402,0.05374 0.279742,0.05374 0.100597,0 0.20395,-0.03445 0.103353,-0.03583 0.187413,-0.09646 0.08544,-0.06201 0.139182,-0.15434 0.05374,-0.09371 0.05374,-0.199815 h -0.423057 v -0.234267 h 0.687641 q 0,0.501606 -0.20395,0.727604 -0.202572,0.225999 -0.640788,0.225999 -0.151584,0 -0.289388,-0.03721 -0.136425,-0.03721 -0.259071,-0.118512 -0.121267,-0.08268 -0.209462,-0.201193 -0.08819,-0.11989 -0.14056,-0.293522 -0.05099,-0.173633 -0.05099,-0.385851 0,-0.299034 0.119889,-0.527789 0.11989,-0.228754 0.336242,-0.352778 0.21773,-0.124023 0.497471,-0.124023 0.172255,0 0.312815,0.04961 0.14056,0.04823 0.234267,0.13367 0.09508,0.08544 0.155718,0.184657 0.06063,0.09922 0.09509,0.216352 h -0.259072 q -0.02205,-0.07166 -0.06339,-0.130913 -0.03996,-0.06063 -0.104731,-0.110244 -0.06339,-0.05099 -0.159853,-0.07993 -0.09646,-0.02894 -0.216352,-0.02894 -0.322461,0 -0.511252,0.214974 -0.188791,0.214974 -0.188791,0.553972 z"
         inkscape:connector-curvature="0" />
      <path
         id="path2189"
         style="font-size:2.82222223px;fill:#008800;fill-opacity:1;stroke-width:0.26458332px"
         d="m 23.83226,38.265602 h -0.248047 v -1.561317 q -0.06477,0.104731 -0.205328,0.194303 -0.14056,0.0882 -0.290766,0.11989 v -0.271474 q 0.170877,-0.07855 0.307303,-0.212218 0.137803,-0.13367 0.188791,-0.2949 h 0.248047 z"
         inkscape:connector-curvature="0" />
    </g>
  </g>
  <g
     id="g2224"
     transform="translate(15.733584,-14.197946)">
    <g
       transform="translate(17.28263,80.466157)"
       inkscape:label="Gear12"
       id="g1123">
      <path
         inkscape:connector-curvature="0"
         d="m 7.9363,-1.16541 1.01292,-0.14875 0.59412,0.05776 1.67559,0.75852 V 0.49788 L 9.54334,1.2564 8.94922,1.31416 7.9363,1.16541 7.45574,2.95887 8.40733,3.33651 8.89298,3.68359 9.96482,5.17828 9.46694,6.04065 7.63657,5.85975 7.09317,5.6127 6.29033,4.97743 4.97743,6.29033 5.6127,7.09317 5.85975,7.63657 6.04065,9.46694 5.17828,9.96482 3.68359,8.89298 3.33651,8.40733 2.95887,7.45574 1.16541,7.9363 1.31416,8.94922 1.2564,9.54334 0.49788,11.21893 H -0.49788 L -1.2564,9.54334 -1.31416,8.94922 -1.16541,7.9363 -2.95887,7.45574 -3.33651,8.40733 -3.68359,8.89298 -5.17828,9.96482 -6.04065,9.46694 -5.85975,7.63657 -5.6127,7.09317 -4.97743,6.29033 -6.29033,4.97743 -7.09317,5.6127 -7.63657,5.85975 -9.46694,6.04065 -9.96482,5.17828 -8.89298,3.68359 -8.40733,3.33651 -7.45574,2.95887 -7.9363,1.16541 -8.94922,1.31416 -9.54334,1.2564 -11.21893,0.49788 v -0.99576 l 1.67559,-0.75852 0.59412,-0.05776 1.01292,0.14875 0.48056,-1.79346 -0.95159,-0.37764 -0.48565,-0.34708 -1.07184,-1.49469 0.49788,-0.86237 1.83037,0.1809 0.5434,0.24705 0.80284,0.63527 1.3129,-1.3129 -0.63527,-0.80284 -0.24705,-0.5434 -0.1809,-1.83037 0.86237,-0.49788 1.49469,1.07184 0.34708,0.48565 0.37764,0.95159 1.79346,-0.48056 -0.14875,-1.01292 0.05776,-0.59412 0.75852,-1.67559 h 0.99576 l 0.75852,1.67559 0.05776,0.59412 -0.14875,1.01292 1.79346,0.48056 0.37764,-0.95159 0.34708,-0.48565 1.49469,-1.07184 0.86237,0.49788 -0.1809,1.83037 -0.24705,0.5434 -0.63527,0.80284 1.3129,1.3129 0.80284,-0.63527 0.5434,-0.24705 1.83037,-0.1809 0.49788,0.86237 -1.07184,1.49469 -0.48565,0.34708 -0.95159,0.37764 z"
         style="fill:none;stroke:#000000;stroke-width:0.26458332"
         id="path1119" />
      <circle
         r="2.5"
         cy="0"
         cx="0"
         style="fill:none;stroke:#000000;stroke-width:0.26458332"
         id="path1121" />
    </g>
    <g
       id="text1028-3-2-7"
       style="font-style:normal;font-variant:normal;font-weight:normal;font-stretch:normal;font-size:31.75px;line-height:125%;font-family:Loma;-inkscape-font-specification:Loma;letter-spacing:0px;word-spacing:0px;fill:#008800;fill-opacity:1;stroke:none;stroke-width:0.26458332px;stroke-linecap:butt;stroke-linejoin:miter;stroke-opacity:1"
       aria-label="MeG4">
      <path
         id="path2174"
         style="font-size:2.82222223px;fill:#008800;fill-opacity:1;stroke-width:0.26458332px"
         d="m 14.101243,76.611359 v -1.998156 h 0.248047 l 0.715201,1.814877 0.715202,-1.814877 h 0.248047 v 1.998156 H 15.779693 V 75.28293 l -0.515386,1.328429 H 14.864676 L 14.34929,75.28293 v 1.328429 z"
         inkscape:connector-curvature="0" />
      <path
         id="path2176"
         style="font-size:2.82222223px;fill:#008800;fill-opacity:1;stroke-width:0.26458332px"
         d="m 16.613406,75.944388 q 0.0028,0.135048 0.04134,0.232889 0.03996,0.09646 0.103353,0.148828 0.06477,0.05099 0.136426,0.07441 0.07166,0.02205 0.152962,0.02205 0.150206,0 0.248047,-0.07028 0.09784,-0.07166 0.137804,-0.195681 h 0.256315 q -0.04134,0.216352 -0.212218,0.343132 -0.170877,0.126779 -0.431326,0.126779 -0.332107,0 -0.515386,-0.192925 -0.181901,-0.194304 -0.181901,-0.540191 0,-0.348644 0.180523,-0.560862 0.180523,-0.212218 0.502984,-0.212218 0.321083,0 0.491959,0.212218 0.172255,0.21084 0.172255,0.611849 z m 0.819933,-0.203949 q -0.0041,-0.05512 -0.01516,-0.104731 -0.01103,-0.04961 -0.03996,-0.108865 -0.02756,-0.06063 -0.0689,-0.101975 -0.04134,-0.04272 -0.113,-0.07166 -0.07028,-0.02894 -0.16123,-0.02894 -0.170877,0 -0.28801,0.122645 -0.117133,0.122646 -0.128158,0.293523 z"
         inkscape:connector-curvature="0" />
      <path
         id="path2178"
         style="font-size:2.82222223px;fill:#008800;fill-opacity:1;stroke-width:0.26458332px"
         d="m 18.20504,75.588854 q 0,0.100597 0.01929,0.20395 0.02067,0.101975 0.07166,0.212218 0.05099,0.110243 0.126779,0.194303 0.07579,0.08406 0.199816,0.139182 0.125401,0.05374 0.279742,0.05374 0.100596,0 0.203949,-0.03445 0.103353,-0.03583 0.187413,-0.09646 0.08544,-0.06201 0.139182,-0.15434 0.05374,-0.09371 0.05374,-0.199816 h -0.423058 v -0.234266 h 0.687641 q 0,0.501606 -0.20395,0.727604 -0.202571,0.225998 -0.640787,0.225998 -0.151585,0 -0.289388,-0.03721 -0.136426,-0.03721 -0.259072,-0.118511 -0.121267,-0.08268 -0.209461,-0.201194 -0.0882,-0.119889 -0.14056,-0.293522 -0.05099,-0.173633 -0.05099,-0.385851 0,-0.299034 0.11989,-0.527788 0.119889,-0.228755 0.336241,-0.352778 0.21773,-0.124024 0.497472,-0.124024 0.172255,0 0.312814,0.04961 0.14056,0.04823 0.234267,0.13367 0.09509,0.08544 0.155718,0.184657 0.06063,0.09922 0.09509,0.216352 h -0.259071 q -0.02205,-0.07166 -0.06339,-0.130914 -0.03996,-0.06063 -0.104731,-0.110243 -0.06339,-0.05099 -0.159852,-0.07993 -0.09646,-0.02894 -0.216352,-0.02894 -0.322461,0 -0.511253,0.214974 -0.188791,0.214974 -0.188791,0.553971 z"
         inkscape:connector-curvature="0" />
      <path
         id="path2180"
         style="font-size:2.82222223px;fill:#008800;fill-opacity:1;stroke-width:0.26458332px"
         d="m 20.768191,76.611359 v -0.48507 h -0.876432 v -0.234266 l 0.876432,-1.306381 h 0.248047 v 1.306381 h 0.272852 v 0.234266 h -0.272852 v 0.48507 z m 0,-0.719336 v -0.817177 l -0.566374,0.817177 z"
         inkscape:connector-curvature="0" />
    </g>
  </g>
  <g
     id="g2234"
     transform="translate(46.907879,-42.789577)">
    <g
       id="g1191"
       inkscape:label="Gear17"
       transform="translate(20.40402,106.36524)">
      <path
         id="path1187"
         style="fill:none;stroke:#000000;stroke-width:0.26458332"
         d="m 11.86797,-1.27839 0.77124,-0.08308 0.83125,0.11325 1.63975,0.71192 v 1.0726 l -1.63975,0.71192 -0.83125,0.11325 -0.77124,-0.08308 -0.33961,1.81675 0.74917,0.20114 0.73421,0.40588 1.27184,1.25619 -0.38747,1.00017 -1.78619,0.0715 -0.81603,-0.19468 -0.68915,-0.35607 -0.97296,1.57138 0.62592,0.45819 0.53801,0.6437 0.73217,1.63081 -0.72261,0.79266 -1.6914,-0.57857 -0.6906,-0.47632 -0.51398,-0.58098 -1.47491,1.1138 0.41814,0.65335 0.26914,0.79459 0.09362,1.78517 -0.96016,0.4781 L 4.88694,12.61464 4.41504,11.92101 4.14564,11.1936 2.36798,11.69938 2.52186,12.45967 2.48579,13.29783 1.92821,14.99626 0.86018,15.09523 0,13.52817 l -0.18946,-0.81726 0.01156,-0.77562 -1.84033,-0.17053 -0.13116,0.76454 -0.3364,0.76853 -1.13348,1.38232 -1.03166,-0.29353 -0.23601,-1.77198 0.11856,-0.83051 0.29097,-0.71906 -1.65446,-0.82382 -0.39848,0.66552 -0.59131,0.59511 -1.55629,0.87952 -0.85596,-0.64639 0.42004,-1.73757 0.41057,-0.7316 0.53107,-0.5654 -1.24513,-1.36585 -0.61199,0.47664 -0.76636,0.34131 -1.76892,0.25793 -0.56465,-0.91195 1.01936,-1.4685 0.64713,-0.53388 0.69945,-0.33537 -0.66765,-1.72341 -0.74284,0.22338 -0.83791,0.04142 -1.74264,-0.3985 -0.19709,-1.05434 1.48101,-1.0011 0.79629,-0.26406 0.77337,-0.06005 v -1.84822 l -0.77337,-0.06005 -0.79629,-0.26406 -1.48101,-1.0011 0.19709,-1.05434 1.74264,-0.3985 0.83791,0.04142 0.74284,0.22338 0.66765,-1.72341 -0.69945,-0.33537 -0.64713,-0.53388 -1.01936,-1.4685 0.56465,-0.91195 1.76892,0.25793 0.76636,0.34131 0.61199,0.47664 1.24513,-1.36585 -0.53107,-0.5654 -0.41057,-0.7316 -0.42004,-1.73757 0.85596,-0.64639 1.55629,0.87952 0.59131,0.59511 0.39848,0.66552 1.65446,-0.82382 -0.29097,-0.71906 -0.11856,-0.83051 0.23601,-1.77198 1.03166,-0.29353 1.13348,1.38232 0.3364,0.76853 0.13116,0.76454 1.84033,-0.17053 -0.01156,-0.77562 L 0,-13.52817 l 0.86018,-1.56706 1.06803,0.09897 0.55758,1.69843 0.03607,0.83816 -0.15388,0.76029 1.77766,0.50578 0.2694,-0.72741 0.4719,-0.69363 1.36818,-1.15051 0.96016,0.4781 -0.09362,1.78517 -0.26914,0.79459 -0.41814,0.65335 1.47491,1.1138 0.51398,-0.58098 0.6906,-0.47632 1.6914,-0.57857 0.72261,0.79266 -0.73217,1.63081 -0.53801,0.6437 -0.62592,0.45819 0.97296,1.57138 0.68915,-0.35607 0.81603,-0.19468 1.78619,0.0715 0.38747,1.00017 -1.27184,1.25619 -0.73421,0.40588 -0.74917,0.20114 z"
         inkscape:connector-curvature="0" />
      <circle
         id="path1189"
         style="fill:none;stroke:#000000;stroke-width:0.26458332"
         cx="0"
         cy="0"
         r="3" />
    </g>
    <g
       id="text1028-3-2-2"
       style="font-style:normal;font-variant:normal;font-weight:normal;font-stretch:normal;font-size:31.75px;line-height:125%;font-family:Loma;-inkscape-font-specification:Loma;letter-spacing:0px;word-spacing:0px;fill:#008800;fill-opacity:1;stroke:none;stroke-width:0.26458332px;stroke-linecap:butt;stroke-linejoin:miter;stroke-opacity:1"
       aria-label="MeG3">
      <path
         id="path2165"
         style="font-size:2.82222223px;fill:#008800;fill-opacity:1;stroke-width:0.26458332px"
         d="m 17.219546,100.42387 v -1.998159 h 0.248047 l 0.715202,1.814879 0.715201,-1.814879 h 0.248047 v 1.998159 h -0.248047 v -1.328433 l -0.515386,1.328433 h -0.399631 l -0.515386,-1.328433 v 1.328433 z"
         inkscape:connector-curvature="0" />
      <path
         id="path2167"
         style="font-size:2.82222223px;fill:#008800;fill-opacity:1;stroke-width:0.26458332px"
         d="m 19.73171,99.756896 q 0.0028,0.135048 0.04134,0.232888 0.03996,0.09647 0.103353,0.148826 0.06477,0.051 0.136425,0.0744 0.07166,0.022 0.152963,0.022 0.150206,0 0.248046,-0.0703 0.09784,-0.0717 0.137804,-0.195686 h 0.256315 q -0.04134,0.216356 -0.212218,0.343136 -0.170876,0.12677 -0.431325,0.12677 -0.332108,0 -0.515387,-0.19292 -0.181901,-0.1943 -0.181901,-0.540192 0,-0.348643 0.180523,-0.560861 0.180523,-0.212218 0.502984,-0.212218 0.321083,0 0.49196,0.212218 0.172255,0.21084 0.172255,0.611849 z m 0.819932,-0.20395 q -0.0041,-0.05512 -0.01516,-0.104731 -0.01102,-0.04961 -0.03996,-0.108865 -0.02756,-0.06063 -0.0689,-0.101975 -0.04134,-0.04272 -0.112999,-0.07166 -0.07028,-0.02894 -0.161231,-0.02894 -0.170877,0 -0.28801,0.122645 -0.117133,0.122645 -0.128157,0.293522 z"
         inkscape:connector-curvature="0" />
      <path
         id="path2169"
         style="font-size:2.82222223px;fill:#008800;fill-opacity:1;stroke-width:0.26458332px"
         d="m 21.323344,99.401362 q 0,0.100597 0.01929,0.20395 0.02067,0.101974 0.07166,0.212217 0.05099,0.110244 0.12678,0.194301 0.07579,0.0841 0.199815,0.13918 0.125402,0.0537 0.279742,0.0537 0.100597,0 0.203949,-0.0344 0.103353,-0.0358 0.187414,-0.0965 0.08544,-0.062 0.139182,-0.154336 0.05374,-0.09371 0.05374,-0.199815 h -0.423058 v -0.234267 h 0.687641 q 0,0.501606 -0.203949,0.727608 -0.202572,0.22599 -0.640788,0.22599 -0.151584,0 -0.289388,-0.0372 -0.136426,-0.0372 -0.259071,-0.11851 -0.121268,-0.0827 -0.209462,-0.2012 -0.08819,-0.119887 -0.14056,-0.293519 -0.05099,-0.173633 -0.05099,-0.385851 0,-0.299034 0.119889,-0.527789 0.119889,-0.228754 0.336241,-0.352777 0.21773,-0.124024 0.497472,-0.124024 0.172255,0 0.312815,0.04961 0.14056,0.04823 0.234266,0.13367 0.09508,0.08544 0.155719,0.184657 0.06063,0.09922 0.09508,0.216352 h -0.259071 q -0.02205,-0.07166 -0.06339,-0.130913 -0.03996,-0.06063 -0.104731,-0.110243 -0.06339,-0.05099 -0.159852,-0.07993 -0.09646,-0.02894 -0.216352,-0.02894 -0.322461,0 -0.511252,0.214974 -0.188791,0.214974 -0.188791,0.553971 z"
         inkscape:connector-curvature="0" />
      <path
         id="path2171"
         style="font-size:2.82222223px;fill:#008800;fill-opacity:1;stroke-width:0.26458332px"
         d="m 23.092744,99.839578 h 0.248047 q 0.0014,0.163982 0.112999,0.264582 0.113,0.1006 0.282498,0.1006 0.180523,0 0.305925,-0.10887 0.125401,-0.11024 0.125401,-0.281117 0,-0.166742 -0.111621,-0.261827 -0.110243,-0.09509 -0.28801,-0.09509 -0.09095,0 -0.186035,0.02618 V 99.24977 q 0.03858,0.0028 0.05788,0.0028 0.179145,0 0.303168,-0.09371 0.125401,-0.09508 0.125401,-0.245291 0,-0.130913 -0.09508,-0.205327 -0.09371,-0.07579 -0.242535,-0.07579 -0.157096,0 -0.249425,0.08406 -0.09233,0.08406 -0.115755,0.245291 h -0.248047 q 0.0069,-0.237023 0.180523,-0.399631 0.175011,-0.163987 0.427192,-0.163987 0.243913,0 0.417546,0.14745 0.173632,0.14745 0.173632,0.373449 0,0.135047 -0.07993,0.250803 -0.07993,0.114377 -0.198437,0.16812 0.377582,0.09646 0.377582,0.471289 0,0.272844 -0.195681,0.452004 -0.194304,0.17776 -0.48507,0.17776 -0.177767,0 -0.323839,-0.0758 -0.146072,-0.0772 -0.23151,-0.21359 -0.08544,-0.13781 -0.08682,-0.310067 z"
         inkscape:connector-curvature="0" />
    </g>
  </g>
  <g
     id="g2243"
     transform="translate(46.237628,-32.77292)">
    <g
       transform="translate(22.385309,144.9111)"
       inkscape:label="Gear14"
       id="g1303">
      <path
         inkscape:connector-curvature="0"
         d="m 11.89716,-1.52037 1.1458,-0.14643 0.86196,0.10009 2.07394,0.92123 V 0.64548 L 13.90492,1.56671 13.04296,1.6668 11.89716,1.52037 11.37864,3.79218 12.47449,4.15739 13.20767,4.62156 14.67652,6.35141 14.11639,7.51452 11.84813,7.44467 11.0281,7.16086 10.05931,6.5318 8.60644,8.35364 9.43531,9.15816 9.89448,9.89448 10.46731,12.09032 9.458,12.89522 7.44467,11.84813 6.82899,11.23663 6.22908,10.24952 4.12962,11.26056 4.52734,12.34504 4.62156,13.20767 4.18492,15.4346 2.92634,15.72187 1.56671,13.90492 1.27732,13.08684 1.16511,11.93719 h -2.33022 l -0.11221,1.14965 -0.28939,0.81808 -1.35963,1.81695 -1.25858,-0.28727 -0.43664,-2.22693 0.09422,-0.86263 0.39772,-1.08448 -2.09946,-1.01104 -0.59991,0.98711 -0.61568,0.6115 -2.01333,1.04709 -1.00931,-0.8049 0.57283,-2.19584 0.45917,-0.73632 0.82887,-0.80452 -1.45287,-1.82184 -0.96879,0.62906 -0.82003,0.28381 -2.26826,0.06985 -0.56013,-1.16311 1.46885,-1.72985 0.73318,-0.46417 1.09585,-0.36521 -0.51852,-2.27181 -1.1458,0.14643 -0.86196,-0.10009 -2.07394,-0.92123 v -1.29096 l 2.07394,-0.92123 0.86196,-0.10009 1.1458,0.14643 0.51852,-2.27181 -1.09585,-0.36521 -0.73318,-0.46417 -1.46885,-1.72985 0.56013,-1.16311 2.26826,0.06985 0.82003,0.28381 0.96879,0.62906 1.45287,-1.82184 -0.82887,-0.80452 -0.45917,-0.73632 -0.57283,-2.19584 1.00931,-0.8049 2.01333,1.04709 0.61568,0.6115 0.59991,0.98711 2.09946,-1.01104 -0.39772,-1.08448 -0.09422,-0.86263 0.43664,-2.22693 1.25858,-0.28727 1.35963,1.81695 0.28939,0.81808 0.11221,1.14965 h 2.33022 l 0.11221,-1.14965 0.28939,-0.81808 1.35963,-1.81695 1.25858,0.28727 0.43664,2.22693 -0.09422,0.86263 -0.39772,1.08448 2.09946,1.01104 0.59991,-0.98711 0.61568,-0.6115 2.01333,-1.04709 1.00931,0.8049 -0.57283,2.19584 -0.45917,0.73632 -0.82887,0.80452 1.45287,1.82184 0.96879,-0.62906 0.82003,-0.28381 2.26826,-0.06985 0.56013,1.16311 -1.46885,1.72985 -0.73318,0.46417 -1.09585,0.36521 z"
         style="fill:none;stroke:#000000;stroke-width:0.26458332"
         id="path1299" />
      <circle
         r="3"
         cy="0"
         cx="0"
         style="fill:none;stroke:#000000;stroke-width:0.26458332"
         id="path1301" />
    </g>
    <g
       id="text1028-3-2-23"
       style="font-style:normal;font-variant:normal;font-weight:normal;font-stretch:normal;font-size:31.75px;line-height:125%;font-family:Loma;-inkscape-font-specification:Loma;letter-spacing:0px;word-spacing:0px;fill:#008800;fill-opacity:1;stroke:none;stroke-width:0.26458332px;stroke-linecap:butt;stroke-linejoin:miter;stroke-opacity:1"
       aria-label="VG2">
      <path
         id="path2158"
         style="font-size:2.82222223px;fill:#008800;fill-opacity:1;stroke-width:0.26458332px"
         d="m 20.658932,138.75064 -0.782726,-1.99815 h 0.289388 l 0.631142,1.61368 0.654568,-1.61368 h 0.272851 l -0.790993,1.99815 z"
         inkscape:connector-curvature="0" />
      <path
         id="path2160"
         style="font-size:2.82222223px;fill:#008800;fill-opacity:1;stroke-width:0.26458332px"
         d="m 22.137567,137.72814 q 0,0.10059 0.01929,0.20395 0.02067,0.10197 0.07166,0.21221 0.05099,0.11025 0.12678,0.19431 0.07579,0.0841 0.199815,0.13918 0.125402,0.0537 0.279742,0.0537 0.100597,0 0.20395,-0.0344 0.103353,-0.0358 0.187413,-0.0965 0.08544,-0.062 0.139182,-0.15434 0.05374,-0.0937 0.05374,-0.19982 h -0.423057 v -0.23426 h 0.687641 q 0,0.5016 -0.20395,0.7276 -0.202571,0.226 -0.640788,0.226 -0.151584,0 -0.289388,-0.0372 -0.136425,-0.0372 -0.259071,-0.11851 -0.121267,-0.0827 -0.209462,-0.20119 -0.08819,-0.11989 -0.14056,-0.29352 -0.05099,-0.17364 -0.05099,-0.38586 0,-0.29903 0.119889,-0.52778 0.11989,-0.22876 0.336242,-0.35278 0.21773,-0.12403 0.497471,-0.12403 0.172255,0 0.312815,0.0496 0.14056,0.0482 0.234267,0.13367 0.09508,0.0854 0.155718,0.18466 0.06063,0.0992 0.09508,0.21635 h -0.259072 q -0.02205,-0.0717 -0.06339,-0.13091 -0.03996,-0.0606 -0.104731,-0.11024 -0.06339,-0.051 -0.159853,-0.0799 -0.09646,-0.0289 -0.216352,-0.0289 -0.322461,0 -0.511252,0.21498 -0.188791,0.21497 -0.188791,0.55397 z"
         inkscape:connector-curvature="0" />
      <path
         id="path2162"
         style="font-size:2.82222223px;fill:#008800;fill-opacity:1;stroke-width:0.26458332px"
         d="m 25.209214,138.51637 v 0.23427 h -1.335319 q 0,-0.31557 0.516764,-0.7469 0.03307,-0.0276 0.108865,-0.0896 0.07579,-0.062 0.107487,-0.0896 0.03307,-0.0276 0.09371,-0.0813 0.06063,-0.0551 0.08819,-0.0868 0.02756,-0.0331 0.06752,-0.0841 0.03996,-0.0524 0.0565,-0.0937 0.01791,-0.0427 0.03169,-0.0951 0.01378,-0.0538 0.01378,-0.10749 0,-0.14607 -0.110243,-0.23151 -0.110243,-0.0854 -0.276986,-0.0854 -0.183279,0 -0.292144,0.0965 -0.108865,0.0951 -0.110243,0.27561 h -0.248047 q 0,-0.26872 0.183279,-0.43684 0.184657,-0.1695 0.472667,-0.1695 0.272852,0 0.450619,0.15297 0.179145,0.15158 0.179145,0.40376 0,0.0703 -0.01654,0.13918 -0.01516,0.0675 -0.03583,0.12127 -0.02067,0.0524 -0.06477,0.11438 -0.04272,0.0606 -0.07441,0.1006 -0.03169,0.0386 -0.09508,0.0978 -0.06201,0.0579 -0.09784,0.0882 -0.03445,0.0303 -0.107487,0.0923 -0.07304,0.0606 -0.104731,0.0882 -0.0317,0.0276 -0.104731,0.0868 -0.07304,0.0593 -0.112999,0.0937 -0.03858,0.0344 -0.09095,0.0937 -0.05237,0.0579 -0.08682,0.11851 z"
         inkscape:connector-curvature="0" />
    </g>
  </g>
  <g
     id="g2252"
     transform="translate(6.4144687,-70.457923)">
    <g
       transform="translate(22.007333,182.70872)"
       inkscape:label="Gear16"
       id="g1512">
      <path
         inkscape:connector-curvature="0"
         d="m 13.90354,-1.57894 1.02795,-0.11673 0.98339,0.12819 2.06369,0.90227 V 0.66521 L 15.91488,1.56748 14.93149,1.69567 13.90354,1.57894 13.44942,3.86191 14.4438,4.14743 15.30328,4.6422 16.8646,6.26553 16.35547,7.49468 14.10359,7.53852 13.14599,7.28063 12.24096,6.7794 10.94776,8.71481 11.75718,9.35913 12.3619,10.14515 13.18315,12.2424 12.2424,13.18315 10.14515,12.3619 9.35913,11.75718 8.71481,10.94776 6.7794,12.24096 7.28063,13.14599 7.53852,14.10359 7.49468,16.35547 6.26553,16.8646 4.6422,15.30328 4.14743,14.4438 3.86191,13.44942 1.57894,13.90354 1.69567,14.93149 1.56748,15.91488 0.66521,17.97857 h -1.33042 l -0.90227,-2.06369 -0.12819,-0.98339 0.11673,-1.02795 -2.28297,-0.45412 -0.28552,0.99438 -0.49477,0.85948 -1.62333,1.56132 -1.22915,-0.50913 -0.04384,-2.25188 0.25789,-0.9576 0.50123,-0.90503 -1.93541,-1.2932 -0.64432,0.80942 -0.78602,0.60472 -2.09725,0.82125 -0.94075,-0.94075 0.82125,-2.09725 0.60472,-0.78602 0.80942,-0.64432 -1.2932,-1.93541 -0.90503,0.50123 -0.9576,0.25789 -2.25188,-0.04384 -0.50913,-1.22915 1.56132,-1.62333 0.85948,-0.49477 0.99438,-0.28552 -0.45412,-2.28297 -1.02795,0.11673 -0.98339,-0.12819 -2.06369,-0.90227 v -1.33042 l 2.06369,-0.90227 0.98339,-0.12819 1.02795,0.11673 0.45412,-2.28297 -0.99438,-0.28552 -0.85948,-0.49477 -1.56132,-1.62333 0.50913,-1.22915 2.25188,-0.04384 0.9576,0.25789 0.90503,0.50123 1.2932,-1.93541 -0.80942,-0.64432 -0.60472,-0.78602 -0.82125,-2.09725 0.94075,-0.94075 2.09725,0.82125 0.78602,0.60472 0.64432,0.80942 1.93541,-1.2932 -0.50123,-0.90503 -0.25789,-0.9576 0.04384,-2.25188 1.22915,-0.50913 1.62333,1.56132 0.49477,0.85948 0.28552,0.99438 2.28297,-0.45412 -0.11673,-1.02795 0.12819,-0.98339 0.90227,-2.06369 h 1.33042 l 0.90227,2.06369 0.12819,0.98339 -0.11673,1.02795 2.28297,0.45412 0.28552,-0.99438 0.49477,-0.85948 1.62333,-1.56132 1.22915,0.50913 0.04384,2.25188 -0.25789,0.9576 -0.50123,0.90503 1.93541,1.2932 0.64432,-0.80942 0.78602,-0.60472 2.09725,-0.82125 0.94075,0.94075 -0.82125,2.09725 -0.60472,0.78602 -0.80942,0.64432 1.2932,1.93541 0.90503,-0.50123 0.9576,-0.25789 2.25188,0.04384 0.50913,1.22915 -1.56132,1.62333 -0.85948,0.49477 -0.99438,0.28552 z"
         style="fill:none;stroke:#000000;stroke-width:0.26458332"
         id="path1508" />
      <circle
         r="2.5"
         cy="0"
         cx="0"
         style="fill:none;stroke:#000000;stroke-width:0.26458332"
         id="path1510" />
    </g>
    <g
       id="text1028-3-2-23-5"
       style="font-style:normal;font-variant:normal;font-weight:normal;font-stretch:normal;font-size:31.75px;line-height:125%;font-family:Loma;-inkscape-font-specification:Loma;letter-spacing:0px;word-spacing:0px;fill:#008800;fill-opacity:1;stroke:none;stroke-width:0.26458332px;stroke-linecap:butt;stroke-linejoin:miter;stroke-opacity:1"
       aria-label="VG1">
      <path
         id="path2151"
         style="font-size:2.82222223px;fill:#008800;fill-opacity:1;stroke-width:0.26458332px"
         d="m 19.505442,176.64276 -0.782726,-1.99815 h 0.289388 l 0.631142,1.61368 0.654568,-1.61368 h 0.272851 l -0.790994,1.99815 z"
         inkscape:connector-curvature="0" />
      <path
         id="path2153"
         style="font-size:2.82222223px;fill:#008800;fill-opacity:1;stroke-width:0.26458332px"
         d="m 20.984077,175.62026 q 0,0.10059 0.01929,0.20395 0.02067,0.10197 0.07166,0.21221 0.05099,0.11025 0.12678,0.19431 0.07579,0.0841 0.199815,0.13918 0.125402,0.0537 0.279742,0.0537 0.100597,0 0.20395,-0.0345 0.103353,-0.0358 0.187413,-0.0965 0.08544,-0.062 0.139182,-0.15434 0.05374,-0.0937 0.05374,-0.19982 h -0.423057 v -0.23426 h 0.687641 q 0,0.5016 -0.20395,0.7276 -0.202572,0.226 -0.640788,0.226 -0.151584,0 -0.289388,-0.0372 -0.136426,-0.0372 -0.259071,-0.11851 -0.121267,-0.0827 -0.209462,-0.20119 -0.08819,-0.11989 -0.14056,-0.29352 -0.05099,-0.17364 -0.05099,-0.38586 0,-0.29903 0.119889,-0.52778 0.11989,-0.22876 0.336242,-0.35278 0.21773,-0.12402 0.497471,-0.12402 0.172255,0 0.312815,0.0496 0.14056,0.0482 0.234267,0.13367 0.09508,0.0854 0.155718,0.18466 0.06063,0.0992 0.09509,0.21635 h -0.259072 q -0.02205,-0.0717 -0.06339,-0.13091 -0.03996,-0.0606 -0.104731,-0.11024 -0.06339,-0.051 -0.159853,-0.0799 -0.09646,-0.0289 -0.216352,-0.0289 -0.322461,0 -0.511252,0.21498 -0.188791,0.21497 -0.188791,0.55397 z"
         inkscape:connector-curvature="0" />
      <path
         id="path2155"
         style="font-size:2.82222223px;fill:#008800;fill-opacity:1;stroke-width:0.26458332px"
         d="m 23.68641,176.64276 h -0.248047 v -1.56132 q -0.06477,0.10473 -0.205328,0.19431 -0.14056,0.0882 -0.290766,0.11989 v -0.27148 q 0.170877,-0.0785 0.307302,-0.21221 0.137804,-0.13367 0.188792,-0.2949 h 0.248047 z"
         inkscape:connector-curvature="0" />
    </g>
  </g>
  <g
     id="g2261"
     transform="translate(5.4285297,-62.10929)">
    <g
       id="g1825"
       inkscape:label="Gear9"
       transform="translate(22.59906,216.3276)">
      <path
         id="path1821"
         style="fill:none;stroke:#000000;stroke-width:0.26458332"
         d="m 7.112,-1.36363 1.48055,-0.28387 0.57657,0.03074 2.19536,1.03084 V 0.58592 L 9.16912,1.61676 8.59255,1.6475 7.112,1.36363 6.32463,3.52691 7.64127,4.26112 8.06319,4.65528 9.08232,6.85611 8.32908,7.75379 5.98472,7.13231 5.52328,6.78525 4.57158,5.61611 2.5779,6.76716 3.11456,8.17592 3.1844,8.74907 2.55044,11.09009 1.3964,11.29358 0,9.31056 -0.13039,8.7481 -0.10793,7.24075 -2.37506,6.84099 -2.86949,8.26512 -3.1844,8.74907 l -1.99042,1.38582 -1.01485,-0.58592 0.20495,-2.41666 0.26166,-0.5147 0.98612,-1.14025 -1.47977,-1.76352 -1.29417,0.77313 -0.55231,0.16831 -2.41553,-0.21781 -0.4008,-1.10118 1.7104,-1.71953 0.53128,-0.22608 1.48836,-0.23962 v -2.30212 l -1.48836,-0.23962 -0.53128,-0.22608 -1.7104,-1.71953 0.4008,-1.10118 2.41553,-0.21781 0.55231,0.16831 1.29417,0.77313 1.47977,-1.76352 -0.98612,-1.14025 -0.26166,-0.5147 -0.20495,-2.41666 1.01485,-0.58592 1.99042,1.38582 0.31491,0.48395 0.49443,1.42413 2.26713,-0.39976 L -0.13039,-8.7481 0,-9.31056 l 1.3964,-1.98302 1.15404,0.20349 0.63396,2.34102 -0.06984,0.57315 -0.53666,1.40876 1.99368,1.15105 0.9517,-1.16914 0.46144,-0.34706 2.34436,-0.62148 0.75324,0.89768 -1.01913,2.20083 -0.42192,0.39416 -1.31664,0.73421 z"
         inkscape:connector-curvature="0" />
      <circle
         id="path1823"
         style="fill:none;stroke:#000000;stroke-width:0.26458332"
         cx="0"
         cy="0"
         r="2.5" />
    </g>
    <g
       id="text1028-3-2-23-2"
       style="font-style:normal;font-variant:normal;font-weight:normal;font-stretch:normal;font-size:31.75px;line-height:125%;font-family:Loma;-inkscape-font-specification:Loma;letter-spacing:0px;word-spacing:0px;fill:#008800;fill-opacity:1;stroke:none;stroke-width:0.26458332px;stroke-linecap:butt;stroke-linejoin:miter;stroke-opacity:1"
       aria-label="VG4">
      <path
         id="path2144"
         style="font-size:2.82222223px;fill:#008800;fill-opacity:1;stroke-width:0.26458332px"
         d="m 20.563774,212.85291 -0.782725,-1.99816 h 0.289388 l 0.631141,1.61368 0.654568,-1.61368 h 0.272852 l -0.790994,1.99816 z"
         inkscape:connector-curvature="0" />
      <path
         id="path2146"
         style="font-size:2.82222223px;fill:#008800;fill-opacity:1;stroke-width:0.26458332px"
         d="m 22.042409,211.8304 q 0,0.1006 0.01929,0.20395 0.02067,0.10198 0.07166,0.21222 0.05099,0.11024 0.126779,0.1943 0.07579,0.0841 0.199816,0.13918 0.125401,0.0538 0.279742,0.0538 0.100596,0 0.203949,-0.0345 0.103353,-0.0358 0.187413,-0.0965 0.08544,-0.062 0.139182,-0.15434 0.05374,-0.0937 0.05374,-0.19981 h -0.423058 v -0.23427 h 0.687641 q 0,0.50161 -0.20395,0.72761 -0.202571,0.22599 -0.640787,0.22599 -0.151584,0 -0.289388,-0.0372 -0.136426,-0.0372 -0.259071,-0.11851 -0.121268,-0.0827 -0.209462,-0.2012 -0.08819,-0.11989 -0.14056,-0.29352 -0.05099,-0.17363 -0.05099,-0.38585 0,-0.29904 0.11989,-0.52779 0.119889,-0.22875 0.336241,-0.35278 0.21773,-0.12402 0.497472,-0.12402 0.172255,0 0.312815,0.0496 0.140559,0.0482 0.234266,0.13367 0.09509,0.0854 0.155718,0.18466 0.06063,0.0992 0.09509,0.21635 h -0.259071 q -0.02205,-0.0717 -0.06339,-0.13092 -0.03996,-0.0606 -0.104731,-0.11024 -0.06339,-0.051 -0.159852,-0.0799 -0.09646,-0.0289 -0.216352,-0.0289 -0.322461,0 -0.511252,0.21497 -0.188792,0.21497 -0.188792,0.55397 z"
         inkscape:connector-curvature="0" />
      <path
         id="path2148"
         style="font-size:2.82222223px;fill:#008800;fill-opacity:1;stroke-width:0.26458332px"
         d="m 24.60556,212.85291 v -0.48507 h -0.876432 v -0.23427 l 0.876432,-1.30638 h 0.248047 v 1.30638 h 0.272852 v 0.23427 h -0.272852 v 0.48507 z m 0,-0.71934 v -0.81718 l -0.566374,0.81718 z"
         inkscape:connector-curvature="0" />
    </g>
  </g>
  <g
     id="g2270"
     transform="translate(45.703089,-101.57263)">
    <g
       transform="translate(24.374293,255.65812)"
       inkscape:label="Gear20"
       id="g1948">
      <path
         inkscape:connector-curvature="0"
         d="m 18.53989,-1.73751 0.81766,-0.07662 1.26881,0.1908 2.12145,0.90459 v 1.43748 l -2.12145,0.90459 -1.26881,0.1908 -0.81766,-0.07662 -0.37049,2.33917 0.80132,0.17979 1.14775,0.57355 1.73808,1.51588 -0.4442,1.36712 -2.29715,0.20475 -1.26567,-0.21061 -0.75397,-0.32555 -1.07519,2.11019 0.70654,0.41862 0.91434,0.90015 1.18457,1.97878 -0.84492,1.16295 -2.24799,-0.51513 -1.13864,-0.59142 -0.61646,-0.54261 -1.67467,1.67467 0.54261,0.61646 0.59142,1.13864 0.51513,2.24799 -1.16295,0.84492 L 10.81057,17.64125 9.91042,16.72691 9.4918,16.02037 7.38161,17.09556 7.70716,17.84953 7.91777,19.1152 7.71302,21.41235 6.3459,21.85655 4.83002,20.11847 4.25647,18.97072 4.07668,18.1694 l -2.33917,0.37049 0.07662,0.81766 -0.1908,1.26881 -0.90459,2.12145 h -1.43748 l -0.90459,-2.12145 -0.1908,-1.26881 0.07662,-0.81766 -2.33917,-0.37049 -0.17979,0.80132 -0.57355,1.14775 -1.51588,1.73808 -1.36712,-0.4442 -0.20475,-2.29715 0.21061,-1.26567 0.32555,-0.75397 -2.11019,-1.07519 -0.41862,0.70654 -0.90015,0.91434 -1.97878,1.18457 -1.16295,-0.84492 0.51513,-2.24799 0.59142,-1.13864 0.54261,-0.61646 -1.67467,-1.67467 -0.61646,0.54261 -1.13864,0.59142 -2.24799,0.51513 -0.84492,-1.16295 1.18457,-1.97878 0.91434,-0.90015 0.70654,-0.41862 -1.07519,-2.11019 -0.75397,0.32555 -1.26567,0.21061 -2.29715,-0.20475 -0.4442,-1.36712 1.73808,-1.51588 1.14775,-0.57355 0.80132,-0.17979 -0.37049,-2.33917 -0.81766,0.07662 -1.26881,-0.1908 -2.12145,-0.90459 v -1.43748 l 2.12145,-0.90459 1.26881,-0.1908 0.81766,0.07662 0.37049,-2.33917 -0.80132,-0.17979 -1.14775,-0.57355 -1.73808,-1.51588 0.4442,-1.36712 2.29715,-0.20475 1.26567,0.21061 0.75397,0.32555 1.07519,-2.11019 -0.70654,-0.41862 -0.91434,-0.90015 -1.18457,-1.97878 0.84492,-1.16295 2.24799,0.51513 1.13864,0.59142 0.61646,0.54261 1.67467,-1.67467 -0.54261,-0.61646 -0.59142,-1.13864 -0.51513,-2.24799 1.16295,-0.84492 1.97878,1.18457 0.90015,0.91434 0.41862,0.70654 2.11019,-1.07519 -0.32555,-0.75397 -0.21061,-1.26567 0.20475,-2.29715 1.36712,-0.4442 1.51588,1.73808 0.57355,1.14775 0.17979,0.80132 2.33917,-0.37049 -0.07662,-0.81766 0.1908,-1.26881 0.90459,-2.12145 h 1.43748 l 0.90459,2.12145 0.1908,1.26881 -0.07662,0.81766 2.33917,0.37049 0.17979,-0.80132 0.57355,-1.14775 1.51588,-1.73808 1.36712,0.4442 0.20475,2.29715 -0.21061,1.26567 -0.32555,0.75397 2.11019,1.07519 0.41862,-0.70654 0.90015,-0.91434 1.97878,-1.18457 1.16295,0.84492 -0.51513,2.24799 -0.59142,1.13864 -0.54261,0.61646 1.67467,1.67467 0.61646,-0.54261 1.13864,-0.59142 2.24799,-0.51513 0.84492,1.16295 -1.18457,1.97878 -0.91434,0.90015 -0.70654,0.41862 1.07519,2.11019 0.75397,-0.32555 1.26567,-0.21061 2.29715,0.20475 0.4442,1.36712 -1.73808,1.51588 -1.14775,0.57355 -0.80132,0.17979 z"
         style="fill:none;stroke:#000000;stroke-width:0.26458332"
         id="path1944" />
      <circle
         r="3"
         cy="0"
         cx="0"
         style="fill:none;stroke:#000000;stroke-width:0.26458332"
         id="path1946" />
    </g>
    <g
       id="text1028-3-2-23-8"
       style="font-style:normal;font-variant:normal;font-weight:normal;font-stretch:normal;font-size:31.75px;line-height:125%;font-family:Loma;-inkscape-font-specification:Loma;letter-spacing:0px;word-spacing:0px;fill:#008800;fill-opacity:1;stroke:none;stroke-width:0.26458332px;stroke-linecap:butt;stroke-linejoin:miter;stroke-opacity:1"
       aria-label="VG3">
      <path
         id="path2137"
         style="font-size:2.82222223px;fill:#008800;fill-opacity:1;stroke-width:0.26458332px"
         d="m 22.245772,247.38103 -0.782726,-1.99816 h 0.289388 l 0.631141,1.61368 0.654569,-1.61368 h 0.272851 l -0.790994,1.99816 z"
         inkscape:connector-curvature="0" />
      <path
         id="path2139"
         style="font-size:2.82222223px;fill:#008800;fill-opacity:1;stroke-width:0.26458332px"
         d="m 23.724407,246.35852 q 0,0.1006 0.01929,0.20395 0.02067,0.10198 0.07166,0.21222 0.05099,0.11024 0.12678,0.1943 0.07579,0.0841 0.199815,0.13919 0.125402,0.0537 0.279742,0.0537 0.100597,0 0.20395,-0.0345 0.103352,-0.0358 0.187413,-0.0965 0.08544,-0.062 0.139182,-0.15434 0.05374,-0.0937 0.05374,-0.19982 h -0.423058 v -0.23427 h 0.687641 q 0,0.50161 -0.203949,0.72761 -0.202572,0.226 -0.640788,0.226 -0.151584,0 -0.289388,-0.0372 -0.136426,-0.0372 -0.259071,-0.11851 -0.121268,-0.0827 -0.209462,-0.2012 -0.08819,-0.11989 -0.14056,-0.29352 -0.05099,-0.17363 -0.05099,-0.38585 0,-0.29903 0.119889,-0.52779 0.119889,-0.22875 0.336241,-0.35278 0.21773,-0.12402 0.497472,-0.12402 0.172255,0 0.312815,0.0496 0.14056,0.0482 0.234266,0.13367 0.09509,0.0854 0.155719,0.18466 0.06063,0.0992 0.09508,0.21635 h -0.259071 q -0.02205,-0.0717 -0.06339,-0.13091 -0.03996,-0.0606 -0.104731,-0.11025 -0.06339,-0.051 -0.159852,-0.0799 -0.09646,-0.0289 -0.216352,-0.0289 -0.322461,0 -0.511252,0.21497 -0.188791,0.21498 -0.188791,0.55397 z"
         inkscape:connector-curvature="0" />
      <path
         id="path2141"
         style="font-size:2.82222223px;fill:#008800;fill-opacity:1;stroke-width:0.26458332px"
         d="m 25.493807,246.79674 h 0.248047 q 0.0014,0.16399 0.112999,0.26458 0.113,0.1006 0.282498,0.1006 0.180523,0 0.305925,-0.10887 0.125401,-0.11024 0.125401,-0.28112 0,-0.16674 -0.111621,-0.26182 -0.110243,-0.0951 -0.28801,-0.0951 -0.09095,0 -0.186035,0.0262 v -0.23427 q 0.03858,0.003 0.05788,0.003 0.179145,0 0.303168,-0.0937 0.125401,-0.0951 0.125401,-0.24529 0,-0.13092 -0.09508,-0.20533 -0.09371,-0.0758 -0.242535,-0.0758 -0.157096,0 -0.249425,0.0841 -0.09233,0.0841 -0.115755,0.24529 h -0.248047 q 0.0069,-0.23702 0.180523,-0.39963 0.175011,-0.16399 0.427192,-0.16399 0.243913,0 0.417546,0.14745 0.173632,0.14745 0.173632,0.37345 0,0.13505 -0.07993,0.2508 -0.07993,0.11438 -0.198437,0.16812 0.377582,0.0965 0.377582,0.47129 0,0.27285 -0.195681,0.452 -0.194304,0.17777 -0.48507,0.17777 -0.177767,0 -0.323839,-0.0758 -0.146072,-0.0772 -0.23151,-0.21359 -0.08544,-0.13781 -0.08682,-0.31006 z"
         inkscape:connector-curvature="0" />
    </g>
  </g>
  <g
     id="g2322">
    <g
       transform="translate(54.790253,15.068328)"
       id="g2204">
      <g
         id="g1015"
         inkscape:label="Gear9"
         transform="translate(12.887455,15.789934)">
        <path
           id="path1011"
           style="fill:none;stroke:#000000;stroke-width:0.26458332"
           d="m 5.15347,-0.98811 1.07282,-0.2057 0.41779,0.02228 1.5908,0.74696 V 0.42457 L 6.64408,1.17153 6.22629,1.19381 5.15347,0.98811 4.58293,2.55565 5.53698,3.08768 5.84271,3.37329 6.58119,4.96804 6.03538,5.61852 4.33662,5.16818 4.00225,4.91669 3.31264,4.06952 1.86799,4.90359 2.25686,5.9244 2.30747,6.33971 1.84809,8.03605 1.01185,8.1835 0,6.74658 -0.09449,6.33901 -0.07821,5.24676 -1.72101,4.95709 -2.07928,5.98903 -2.30747,6.33971 -3.74975,7.3439 -4.48513,6.91933 -4.33662,5.16818 -4.14701,4.79523 -3.43246,3.96898 -4.50472,2.69111 -5.4425,3.25133 -5.84271,3.37329 -7.59304,3.21546 -7.88347,2.41753 l 1.23939,-1.246 0.38497,-0.16382 1.07848,-0.17364 v -1.66814 l -1.07848,-0.17364 -0.38497,-0.16382 -1.23939,-1.246 0.29043,-0.79793 1.75033,-0.15783 0.40021,0.12196 0.93778,0.56022 1.07226,-1.27787 -0.71455,-0.82625 -0.18961,-0.37295 -0.14851,-1.75115 0.73538,-0.42457 1.44228,1.00419 0.22819,0.35068 0.35827,1.03194 1.6428,-0.28967 L -0.09449,-6.33901 0,-6.74658 1.01185,-8.1835 l 0.83624,0.14745 0.45938,1.69634 -0.05061,0.41531 -0.38887,1.02081 1.44465,0.83407 0.68961,-0.84717 0.33437,-0.25149 1.69876,-0.45034 0.54581,0.65048 -0.73848,1.59475 -0.30573,0.28561 -0.95405,0.53203 z"
           inkscape:connector-curvature="0" />
        <circle
           id="path1013"
           style="fill:none;stroke:#000000;stroke-width:0.26458332"
           cx="0"
           cy="0"
           r="2" />
      </g>
    </g>
    <g
       id="text2294"
       style="font-style:normal;font-variant:normal;font-weight:normal;font-stretch:normal;font-size:31.75px;line-height:125%;font-family:Loma;-inkscape-font-specification:Loma;letter-spacing:0px;word-spacing:0px;fill:#008800;fill-opacity:1;stroke:none;stroke-width:0.26458332px;stroke-linecap:butt;stroke-linejoin:miter;stroke-opacity:1"
       aria-label="MeG2">
      <path
         id="path2296"
         style="font-size:2.11666656px;stroke-width:0.26458332px;fill:#008800;fill-opacity:1"
         d="m 64.940292,28.600508 v -1.498617 h 0.186035 l 0.536401,1.361157 0.536402,-1.361157 h 0.186035 v 1.498617 H 66.19913 v -0.996322 l -0.38654,0.996322 h -0.299723 l -0.38654,-0.996322 v 0.996322 z" />
      <path
         id="path2298"
         style="font-size:2.11666656px;stroke-width:0.26458332px;fill:#008800;fill-opacity:1"
         d="m 66.824414,28.10028 q 0.0021,0.101286 0.03101,0.174666 0.02997,0.07235 0.07752,0.111621 0.04858,0.03824 0.102319,0.05581 0.05374,0.01654 0.114722,0.01654 0.112655,0 0.186035,-0.05271 0.07338,-0.05374 0.103353,-0.146761 H 67.6316 q -0.03101,0.162264 -0.159163,0.257349 -0.128158,0.09509 -0.323495,0.09509 -0.24908,0 -0.386539,-0.144694 -0.136426,-0.145728 -0.136426,-0.405144 0,-0.261482 0.135392,-0.420646 0.135392,-0.159163 0.377238,-0.159163 0.240812,0 0.36897,0.159163 0.129191,0.15813 0.129191,0.458887 z m 0.61495,-0.152962 q -0.0031,-0.04134 -0.01137,-0.07855 -0.0083,-0.03721 -0.02997,-0.08165 -0.02067,-0.04548 -0.05168,-0.07648 -0.03101,-0.03204 -0.08475,-0.05374 -0.05271,-0.0217 -0.120923,-0.0217 -0.128157,0 -0.216007,0.09198 -0.08785,0.09198 -0.09612,0.220142 z" />
      <path
         id="path2300"
         style="font-size:2.11666656px;stroke-width:0.26458332px;fill:#008800;fill-opacity:1"
         d="m 68.01814,27.83363 q 0,0.07545 0.01447,0.152962 0.0155,0.07648 0.05374,0.159163 0.03824,0.08268 0.09508,0.145728 0.05684,0.06304 0.149862,0.104386 0.09405,0.04031 0.209806,0.04031 0.07545,0 0.152963,-0.02584 0.07751,-0.02687 0.140559,-0.07235 0.06408,-0.04651 0.104387,-0.115755 0.04031,-0.07028 0.04031,-0.149861 h -0.317293 v -0.1757 h 0.515731 q 0,0.376204 -0.152962,0.545703 -0.151929,0.169499 -0.480591,0.169499 -0.113688,0 -0.217041,-0.02791 -0.102319,-0.0279 -0.194303,-0.08888 -0.09095,-0.06201 -0.157097,-0.150895 -0.06615,-0.08992 -0.10542,-0.220142 -0.03824,-0.130225 -0.03824,-0.289388 0,-0.224276 0.08992,-0.395841 0.08992,-0.171566 0.252181,-0.264584 0.163297,-0.09302 0.373104,-0.09302 0.129191,0 0.234611,0.03721 0.105419,0.03617 0.175699,0.100252 0.07131,0.06408 0.116789,0.138493 0.04548,0.07441 0.07131,0.162264 h -0.194304 q -0.01654,-0.05374 -0.04754,-0.09819 -0.02997,-0.04548 -0.07855,-0.08268 -0.04754,-0.03824 -0.11989,-0.05994 -0.07235,-0.0217 -0.162264,-0.0217 -0.241845,0 -0.383439,0.16123 -0.141593,0.16123 -0.141593,0.415479 z" />
      <path
         id="path2302"
         style="font-size:2.11666656px;stroke-width:0.26458332px;fill:#008800;fill-opacity:1"
         d="m 70.321875,28.424808 v 0.1757 h -1.001489 q 0,-0.236678 0.387573,-0.560173 0.02481,-0.02067 0.08165,-0.06718 0.05684,-0.04651 0.08061,-0.06718 0.02481,-0.02067 0.07028,-0.06098 0.04547,-0.04134 0.06615,-0.06511 0.02067,-0.02481 0.05064,-0.06305 0.02997,-0.03927 0.04237,-0.07028 0.01344,-0.03204 0.02377,-0.07131 0.01034,-0.04031 0.01034,-0.08062 0,-0.109554 -0.08268,-0.173633 -0.08268,-0.06408 -0.20774,-0.06408 -0.137459,0 -0.219108,0.07235 -0.08165,0.07131 -0.08268,0.206705 h -0.186035 q 0,-0.201538 0.137459,-0.327628 0.138493,-0.127124 0.3545,-0.127124 0.204639,0 0.337964,0.114721 0.134359,0.113689 0.134359,0.302824 0,0.05271 -0.0124,0.104387 -0.01137,0.05064 -0.02687,0.09095 -0.0155,0.03927 -0.04858,0.08578 -0.03204,0.04547 -0.05581,0.07545 -0.02377,0.02894 -0.07131,0.07338 -0.04651,0.04341 -0.07338,0.06615 -0.02584,0.02274 -0.08062,0.06925 -0.05478,0.04548 -0.07855,0.06615 -0.02377,0.02067 -0.07855,0.06511 -0.05478,0.04444 -0.08475,0.07028 -0.02894,0.02584 -0.06821,0.07028 -0.03927,0.04341 -0.06511,0.08888 z" />
    </g>
  </g>
  <g
     transform="translate(94.475376,211.82571)"
     inkscape:label="Gear19"
     id="g2417">
    <path
       inkscape:connector-curvature="0"
       d="m 16.91056,-1.65535 0.84966,-0.08318 1.16529,0.17032 2.05256,0.88012 v 1.37618 l -2.05256,0.88012 -1.16529,0.17032 -0.84966,-0.08318 -0.37877,2.26984 0.83063,0.19722 1.04685,0.53945 1.65558,1.4989 L 19.618,7.46238 17.39087,7.62834 16.23342,7.41106 15.4568,7.05651 l -1.09526,2.02386 0.72159,0.45624 0.81497,0.85014 1.07918,1.95525 -0.84527,1.086 -2.16034,-0.56617 -1.02418,-0.58134 -0.61942,-0.58751 -1.69307,1.55858 0.53436,0.66582 0.49477,1.06869 0.38584,2.19972 -1.1521,0.7527 L 9.03842,16.70153 8.25848,15.81915 7.86339,15.06234 5.756,15.98673 6.0452,16.78998 6.16616,17.96142 5.81685,20.16723 4.48277,20.50507 3.12571,18.73136 2.67455,17.64355 2.5466,16.79946 0.25324,16.9895 0.26596,17.84313 0,18.99037 -1.04661,20.96324 -2.4181,20.8496 l -0.70761,-2.11824 -0.07351,-1.17537 0.15306,-0.83989 -2.2308,-0.56492 -0.26514,0.81151 -0.62406,0.99873 -1.6305,1.52614 -1.26027,-0.55281 0.01851,-2.23322 0.31212,-1.13555 0.41748,-0.74469 -1.9265,-1.25865 -0.51428,0.68145 -0.91453,0.74198 -2.03768,0.91403 -1.0125,-0.93206 0.74264,-2.10621 0.66392,-0.97268 0.63666,-0.56879 -1.41344,-1.81599 -0.70767,0.47755 -1.1059,0.40483 -2.22407,0.20287 -0.65499,-1.21032 1.38629,-1.75096 0.94378,-0.7044 0.78684,-0.33124 -0.74721,-2.17654 -0.82438,0.22189 -1.17743,0.02381 -2.16943,-0.53027 -0.22652,-1.35742 1.87971,-1.20596 1.12136,-0.35979 0.85177,-0.05781 v -2.30122 l -0.85177,-0.05781 -1.12136,-0.35979 -1.87971,-1.20596 0.22652,-1.35742 2.16943,-0.53027 1.17743,0.02381 0.82438,0.22189 0.74721,-2.17654 -0.78684,-0.33124 -0.94378,-0.7044 -1.38629,-1.75096 0.65499,-1.21032 2.22407,0.20287 1.1059,0.40483 0.70767,0.47755 1.41344,-1.81599 -0.63666,-0.56879 -0.66392,-0.97268 -0.74264,-2.10621 1.0125,-0.93206 2.03768,0.91403 0.91453,0.74198 0.51428,0.68145 1.9265,-1.25865 -0.41748,-0.74469 -0.31212,-1.13555 -0.01851,-2.23322 1.26027,-0.55281 1.6305,1.52614 0.62406,0.99873 0.26514,0.81151 2.2308,-0.56492 -0.15306,-0.83989 0.07351,-1.17537 0.70761,-2.11824 1.37149,-0.11364 1.04661,1.97287 0.26596,1.14724 -0.01272,0.85363 2.29336,0.19004 0.12795,-0.84409 0.45116,-1.08781 1.35706,-1.77371 1.33408,0.33784 0.34931,2.20581 -0.12096,1.17144 -0.2892,0.80325 2.10739,0.92439 0.39509,-0.75681 0.77994,-0.88238 1.85945,-1.23696 1.1521,0.7527 -0.38584,2.19972 -0.49477,1.06869 -0.53436,0.66582 1.69307,1.55858 0.61942,-0.58751 1.02418,-0.58134 2.16034,-0.56617 0.84527,1.086 -1.07918,1.95525 -0.81497,0.85014 -0.72159,0.45624 1.09526,2.02386 0.77662,-0.35455 1.15745,-0.21728 2.22713,0.16596 0.44685,1.30162 -1.65558,1.4989 -1.04685,0.53945 -0.83063,0.19722 z"
       style="fill:none;stroke:#000000;stroke-width:0.26458332"
       id="path2413" />
    <circle
       r="3"
       cy="0"
       cx="0"
       style="fill:none;stroke:#000000;stroke-width:0.26458332"
       id="path2415" />
  </g>
  <g
     id="g2587"
     inkscape:label="Gear31"
     transform="translate(38.698591,210.02539)">
    <path
       id="path2583"
       style="fill:none;stroke:#000000;stroke-width:0.26458332"
       d="m 29.01511,-1.9054 0.13054,-0.00858 1.89742,0.33965 2.03692,0.83209 v 1.48448 l -2.03692,0.83209 -1.89742,0.33965 -0.13054,-0.00858 -0.21038,2.0689 0.12959,0.01788 1.7902,0.71464 1.82773,1.22509 -0.29882,1.45408 -2.16273,0.40503 -1.92694,-0.04925 -0.12614,-0.03467 -0.62255,1.98419 0.12334,0.0436 1.6097,1.06039 1.54371,1.56792 -0.58541,1.36417 -2.19999,-0.03862 -1.87758,-0.43613 -0.11658,-0.05935 -1.00922,1.81826 0.11204,0.06753 1.3633,1.36271 1.19648,1.84658 -0.84803,1.2184 -2.14718,-0.48068 -1.75136,-0.80516 -0.10224,-0.08161 -1.35457,1.57788 0.09615,0.08871 1.06108,1.60924 0.80027,2.04963 -1.07593,1.02275 -2.00646,-0.90306 -1.55344,-1.14122 -0.08372,-0.10052 -1.64447,1.27291 0.07633,0.10625 0.71542,1.78989 0.37131,2.16877 -1.25979,0.78523 -1.78361,-1.28848 -1.2919,-1.43056 -0.06178,-0.11532 -1.86704,0.91583 0.05337,0.11943 0.34048,1.89727 -0.07286,2.19912 -1.39207,0.51556 L 9.30509,29.65747 8.3276,27.99613 8.2903,27.87074 6.27713,28.39199 6.30537,28.51972 6.25695,30.44669 5.74291,32.58612 4.27555,32.81092 3.14461,30.92348 2.52156,29.09938 2.51026,28.96905 0.43337,29.07438 0.43532,29.20519 0,31.08296 l -0.93419,1.99216 -1.48257,-0.07518 -0.72785,-2.07646 -0.24311,-1.91218 0.01517,-0.12993 -2.05558,-0.31491 -0.02442,0.12852 -0.8044,1.75171 -1.31609,1.76333 -1.43708,-0.37208 -0.29497,-2.18047 0.14678,-1.92197 0.04102,-0.12423 -1.95012,-0.72224 -0.04979,0.12097 -1.14055,1.55393 -1.6441,1.46231 -1.33277,-0.65375 0.15,-2.19521 0.53067,-1.85309 0.06518,-0.11342 -1.76481,-1.10001 -0.07312,0.10847 -1.43001,1.29253 -1.90481,1.10142 -1.17388,-0.90866 0.58881,-2.12007 0.89284,-1.70833 0.08668,-0.09798 -1.50725,-1.43275 -0.09347,0.09153 -1.66092,0.97821 -2.08753,0.69544 -0.96694,-1.12635 1.00353,-1.95815 1.21844,-1.49364 0.10463,-0.07853 -1.18799,-1.70682 -0.10998,0.07084 -1.82383,0.62385 -2.18479,0.26098 -0.72041,-1.29794 1.37716,-1.71606 1.49416,-1.21779 0.1183,-0.05585 -0.82009,-1.91103 -0.12199,0.04725 -1.91207,0.24395 -2.19261,-0.18416 -0.44439,-1.41639 1.69441,-1.40371 1.70871,-0.89209 0.12712,-0.0309 -0.41861,-2.03699 -0.129,0.02173 -1.92204,-0.14595 -2.11065,-0.62175 -0.15019,-1.47685 1.94229,-1.03389 1.85332,-0.52987 0.13074,-0.00468 v -2.07956 l -0.13074,-0.00468 -1.85332,-0.52987 -1.94229,-1.03389 0.15019,-1.47685 2.11065,-0.62175 1.92204,-0.14595 0.129,0.02173 0.41861,-2.03699 -0.12712,-0.0309 -1.70871,-0.89209 -1.69441,-1.40371 0.44439,-1.41639 2.19261,-0.18416 1.91207,0.24395 0.12199,0.04725 0.82009,-1.91103 -0.1183,-0.05585 -1.49416,-1.21779 -1.37716,-1.71606 0.72041,-1.29794 2.18479,0.26098 1.82383,0.62385 0.10998,0.07084 1.18799,-1.70682 -0.10463,-0.07853 -1.21844,-1.49364 -1.00353,-1.95815 0.96694,-1.12635 2.08753,0.69544 1.66092,0.97821 0.09347,0.09153 1.50725,-1.43275 -0.08668,-0.09798 -0.89284,-1.70833 -0.58881,-2.12007 1.17388,-0.90866 1.90481,1.10142 1.43001,1.29253 0.07312,0.10847 1.76481,-1.10001 -0.06518,-0.11342 -0.53067,-1.85309 -0.15,-2.19521 1.33277,-0.65375 1.6441,1.46231 1.14055,1.55393 0.04979,0.12097 1.95012,-0.72224 -0.04102,-0.12423 -0.14678,-1.92197 0.29497,-2.18047 1.43708,-0.37208 1.31609,1.76333 0.8044,1.75171 0.02442,0.12852 2.05558,-0.31491 -0.01517,-0.12993 0.24311,-1.91218 0.72785,-2.07646 1.48257,-0.07518 0.93419,1.99216 0.43532,1.87777 -0.00195,0.13081 2.07689,0.10533 0.0113,-0.13033 0.62305,-1.8241 1.13094,-1.88744 1.46736,0.2248 0.51404,2.13943 0.04842,1.92697 -0.02824,0.12773 2.01317,0.52125 0.0373,-0.12539 0.97749,-1.66134 1.48773,-1.62114 1.39207,0.51556 0.07286,2.19912 -0.34048,1.89727 -0.05337,0.11943 1.86704,0.91583 0.06178,-0.11532 1.2919,-1.43056 1.78361,-1.28848 1.25979,0.78523 -0.37131,2.16877 -0.71542,1.78989 -0.07633,0.10625 1.64447,1.27291 0.08372,-0.10052 1.55344,-1.14122 2.00646,-0.90306 1.07593,1.02275 -0.80027,2.04963 -1.06108,1.60924 -0.09615,0.08871 1.35457,1.57788 0.10224,-0.08161 1.75136,-0.80516 2.14718,-0.48068 0.84803,1.2184 -1.19648,1.84658 -1.3633,1.36271 -0.11204,0.06753 1.00922,1.81826 0.11658,-0.05935 1.87758,-0.43613 2.19999,-0.03862 0.58541,1.36417 -1.54371,1.56792 -1.6097,1.06039 -0.12334,0.0436 0.62255,1.98419 0.12614,-0.03467 1.92694,-0.04925 2.16273,0.40503 0.29882,1.45408 -1.82773,1.22509 -1.7902,0.71464 -0.12959,0.01788 z"
       inkscape:connector-curvature="0" />
    <circle
       id="path2585"
       style="fill:none;stroke:#000000;stroke-width:0.26458332"
       cx="0"
       cy="0"
       r="2.5" />
  </g>
  <g
     transform="translate(38.164051,272.56646)"
     inkscape:label="Gear25"
     id="g2763">
    <path
       inkscape:connector-curvature="0"
       d="m 22.99191,-1.79091 0.49214,-0.03834 1.53339,0.25529 2.0452,0.8523 v 1.44332 l -2.0452,0.8523 -1.53339,0.25529 -0.49214,-0.03834 -0.27695,2.1923 0.48621,0.08526 1.42173,0.6286 1.76898,1.33415 -0.35894,1.39797 -2.1929,0.31691 -1.5487,-0.13408 -0.46715,-0.15952 -0.81345,2.05455 0.44974,0.2035 1.22073,0.96242 1.38162,1.73216 -0.69532,1.26479 -2.20282,-0.2384 -1.46671,-0.51501 -0.4128,-0.27068 -1.29884,1.78769 0.385,0.30895 0.94304,1.23578 0.90744,2.02133 -0.98802,1.05214 -2.07432,-0.77873 -1.29255,-0.86359 -0.33252,-0.36484 -1.70261,1.40853 0.29607,0.39499 0.60609,1.43147 0.37624,2.1835 -1.21863,0.77337 -1.8155,-1.27012 -1.03717,-1.1579 -0.23134,-0.43607 -1.99941,0.94085 0.18854,0.45621 0.23105,1.53723 L 9.04915,25.51509 7.67647,25.9611 6.23389,24.27938 5.51725,22.89993 5.40163,22.42003 3.23105,22.83409 3.30021,23.32285 3.14172,24.86924 2.41951,26.96392 0.97904,27.05455 0,25.0669 l -0.35106,-1.51433 0.00735,-0.49358 -2.20535,-0.13875 -0.05457,0.49061 -0.53809,1.45839 -1.22043,1.84927 -1.41776,-0.27045 -0.45398,-2.16868 0.03657,-1.55406 0.12987,-0.47625 -2.10156,-0.68284 -0.17486,0.46163 -0.88387,1.27876 -1.64199,1.48765 -1.30596,-0.61453 0.09962,-2.21344 0.4219,-1.49615 0.24423,-0.42898 -1.86573,-1.18403 -0.28417,0.40364 -1.17412,1.01877 -1.96036,1.03257 -1.1121,-0.92 0.64694,-2.11913 0.78072,-1.34423 0.34324,-0.35476 -1.51265,-1.61082 -0.37562,0.32029 -1.39059,0.69478 -2.15557,0.5126 -0.84836,-1.16767 1.15362,-1.89166 1.09049,-1.10783 0.42068,-0.25827 -1.06454,-1.93639 -0.44347,0.21682 -1.51968,0.32712 -2.21533,-0.03957 -0.53132,-1.34196 1.58782,-1.54534 1.33173,-0.80184 0.4717,-0.14552 -0.54954,-2.1403 -0.48346,0.09972 -1.55329,-0.06109 -2.13589,-0.58925 -0.1809,-1.43194 1.92225,-1.10192 1.4893,-0.44545 0.49307,-0.02365 v -2.20972 l -0.49307,-0.02365 -1.4893,-0.44545 -1.92225,-1.10192 0.1809,-1.43194 2.13589,-0.58925 1.55329,-0.06109 0.48346,0.09972 0.54954,-2.1403 -0.4717,-0.14552 -1.33173,-0.80184 -1.58782,-1.54534 0.53132,-1.34196 2.21533,-0.03957 1.51968,0.32712 0.44347,0.21682 1.06454,-1.93639 -0.42068,-0.25827 -1.09049,-1.10783 -1.15362,-1.89166 0.84836,-1.16767 2.15557,0.5126 1.39059,0.69478 0.37562,0.32029 1.51265,-1.61082 -0.34324,-0.35476 -0.78072,-1.34423 -0.64694,-2.11913 1.1121,-0.92 1.96036,1.03257 1.17412,1.01877 0.28417,0.40364 1.86573,-1.18403 -0.24423,-0.42898 -0.4219,-1.49615 -0.09962,-2.21344 1.30596,-0.61453 1.64199,1.48765 0.88387,1.27876 0.17486,0.46163 2.10156,-0.68284 -0.12987,-0.47625 -0.03657,-1.55406 0.45398,-2.16868 1.41776,-0.27045 1.22043,1.84927 0.53809,1.45839 0.05457,0.49061 2.20535,-0.13875 -0.00735,-0.49358 L 0,-25.0669 l 0.97904,-1.98765 1.44047,0.09063 0.72221,2.09468 0.15849,1.54639 -0.06916,0.48876 2.17058,0.41406 0.11562,-0.4799 0.71664,-1.37945 1.44258,-1.68172 1.37268,0.44601 0.17859,2.20847 -0.23105,1.53723 -0.18854,0.45621 1.99941,0.94085 0.23134,-0.43607 1.03717,-1.1579 1.8155,-1.27012 1.21863,0.77337 -0.37624,2.1835 -0.60609,1.43147 -0.29607,0.39499 1.70261,1.40853 0.33252,-0.36484 1.29255,-0.86359 2.07432,-0.77873 0.98802,1.05214 -0.90744,2.02133 -0.94304,1.23578 -0.385,0.30895 1.29884,1.78769 0.4128,-0.27068 1.46671,-0.51501 2.20282,-0.2384 0.69532,1.26479 -1.38162,1.73216 -1.22073,0.96242 -0.44974,0.2035 0.81345,2.05455 0.46715,-0.15952 1.5487,-0.13408 2.1929,0.31691 0.35894,1.39797 -1.76898,1.33415 -1.42173,0.6286 -0.48621,0.08526 z"
       style="fill:none;stroke:#000000;stroke-width:0.26458332"
       id="path2759" />
    <circle
       r="2.5"
       cy="0"
       cx="0"
       style="fill:none;stroke:#000000;stroke-width:0.26458332"
       id="path2761" />
  </g>
  <g
     id="g2945"
     inkscape:label="Gear25"
     transform="translate(95.760634,272.66694)">
    <path
       id="path2941"
       style="fill:none;stroke:#000000;stroke-width:0.26458332"
       d="m 22.99191,-1.79091 0.49214,-0.03834 1.53339,0.25529 2.0452,0.8523 v 1.44332 l -2.0452,0.8523 -1.53339,0.25529 -0.49214,-0.03834 -0.27695,2.1923 0.48621,0.08526 1.42173,0.6286 1.76898,1.33415 -0.35894,1.39797 -2.1929,0.31691 -1.5487,-0.13408 -0.46715,-0.15952 -0.81345,2.05455 0.44974,0.2035 1.22073,0.96242 1.38162,1.73216 -0.69532,1.26479 -2.20282,-0.2384 -1.46671,-0.51501 -0.4128,-0.27068 -1.29884,1.78769 0.385,0.30895 0.94304,1.23578 0.90744,2.02133 -0.98802,1.05214 -2.07432,-0.77873 -1.29255,-0.86359 -0.33252,-0.36484 -1.70261,1.40853 0.29607,0.39499 0.60609,1.43147 0.37624,2.1835 -1.21863,0.77337 -1.8155,-1.27012 -1.03717,-1.1579 -0.23134,-0.43607 -1.99941,0.94085 0.18854,0.45621 0.23105,1.53723 L 9.04915,25.51509 7.67647,25.9611 6.23389,24.27938 5.51725,22.89993 5.40163,22.42003 3.23105,22.83409 3.30021,23.32285 3.14172,24.86924 2.41951,26.96392 0.97904,27.05455 0,25.0669 l -0.35106,-1.51433 0.00735,-0.49358 -2.20535,-0.13875 -0.05457,0.49061 -0.53809,1.45839 -1.22043,1.84927 -1.41776,-0.27045 -0.45398,-2.16868 0.03657,-1.55406 0.12987,-0.47625 -2.10156,-0.68284 -0.17486,0.46163 -0.88387,1.27876 -1.64199,1.48765 -1.30596,-0.61453 0.09962,-2.21344 0.4219,-1.49615 0.24423,-0.42898 -1.86573,-1.18403 -0.28417,0.40364 -1.17412,1.01877 -1.96036,1.03257 -1.1121,-0.92 0.64694,-2.11913 0.78072,-1.34423 0.34324,-0.35476 -1.51265,-1.61082 -0.37562,0.32029 -1.39059,0.69478 -2.15557,0.5126 -0.84836,-1.16767 1.15362,-1.89166 1.09049,-1.10783 0.42068,-0.25827 -1.06454,-1.93639 -0.44347,0.21682 -1.51968,0.32712 -2.21533,-0.03957 -0.53132,-1.34196 1.58782,-1.54534 1.33173,-0.80184 0.4717,-0.14552 -0.54954,-2.1403 -0.48346,0.09972 -1.55329,-0.06109 -2.13589,-0.58925 -0.1809,-1.43194 1.92225,-1.10192 1.4893,-0.44545 0.49307,-0.02365 v -2.20972 l -0.49307,-0.02365 -1.4893,-0.44545 -1.92225,-1.10192 0.1809,-1.43194 2.13589,-0.58925 1.55329,-0.06109 0.48346,0.09972 0.54954,-2.1403 -0.4717,-0.14552 -1.33173,-0.80184 -1.58782,-1.54534 0.53132,-1.34196 2.21533,-0.03957 1.51968,0.32712 0.44347,0.21682 1.06454,-1.93639 -0.42068,-0.25827 -1.09049,-1.10783 -1.15362,-1.89166 0.84836,-1.16767 2.15557,0.5126 1.39059,0.69478 0.37562,0.32029 1.51265,-1.61082 -0.34324,-0.35476 -0.78072,-1.34423 -0.64694,-2.11913 1.1121,-0.92 1.96036,1.03257 1.17412,1.01877 0.28417,0.40364 1.86573,-1.18403 -0.24423,-0.42898 -0.4219,-1.49615 -0.09962,-2.21344 1.30596,-0.61453 1.64199,1.48765 0.88387,1.27876 0.17486,0.46163 2.10156,-0.68284 -0.12987,-0.47625 -0.03657,-1.55406 0.45398,-2.16868 1.41776,-0.27045 1.22043,1.84927 0.53809,1.45839 0.05457,0.49061 2.20535,-0.13875 -0.00735,-0.49358 L 0,-25.0669 l 0.97904,-1.98765 1.44047,0.09063 0.72221,2.09468 0.15849,1.54639 -0.06916,0.48876 2.17058,0.41406 0.11562,-0.4799 0.71664,-1.37945 1.44258,-1.68172 1.37268,0.44601 0.17859,2.20847 -0.23105,1.53723 -0.18854,0.45621 1.99941,0.94085 0.23134,-0.43607 1.03717,-1.1579 1.8155,-1.27012 1.21863,0.77337 -0.37624,2.1835 -0.60609,1.43147 -0.29607,0.39499 1.70261,1.40853 0.33252,-0.36484 1.29255,-0.86359 2.07432,-0.77873 0.98802,1.05214 -0.90744,2.02133 -0.94304,1.23578 -0.385,0.30895 1.29884,1.78769 0.4128,-0.27068 1.46671,-0.51501 2.20282,-0.2384 0.69532,1.26479 -1.38162,1.73216 -1.22073,0.96242 -0.44974,0.2035 0.81345,2.05455 0.46715,-0.15952 1.5487,-0.13408 2.1929,0.31691 0.35894,1.39797 -1.76898,1.33415 -1.42173,0.6286 -0.48621,0.08526 z"
       inkscape:connector-curvature="0" />
    <circle
       id="path2943"
       style="fill:none;stroke:#000000;stroke-width:0.26458332"
       cx="0"
       cy="0"
       r="3" />
  </g>
  <g
     transform="translate(89.43265,349.04001)"
     inkscape:label="Gear16"
     id="g3133">
    <path
       inkscape:connector-curvature="0"
       d="m 13.94781,-1.58396 1.03123,-0.11711 0.98653,0.1286 2.07026,0.90514 v 1.33466 l -2.07026,0.90514 -0.98653,0.1286 -1.03123,-0.11711 -0.45555,2.29025 0.99754,0.28643 0.86222,0.49634 1.56629,1.6285 -0.51075,1.23307 -2.25906,0.04398 -0.96065,-0.25871 -0.90791,-0.50283 -1.29731,1.94157 0.81199,0.64638 0.60665,0.78852 0.82386,2.10392 -0.94375,0.94375 -2.10392,-0.82386 -0.78852,-0.60665 -0.64638,-0.81199 -1.94157,1.29731 0.50283,0.90791 0.25871,0.96065 -0.04398,2.25906 -1.23307,0.51075 -1.6285,-1.56629 -0.49634,-0.86222 -0.28643,-0.99754 -2.29025,0.45555 0.11711,1.03123 -0.1286,0.98653 -0.90514,2.07026 h -1.33466 l -0.90514,-2.07026 -0.1286,-0.98653 0.11711,-1.03123 -2.29025,-0.45555 -0.28643,0.99754 -0.49634,0.86222 -1.6285,1.56629 -1.23307,-0.51075 -0.04398,-2.25906 0.25871,-0.96065 0.50283,-0.90791 -1.94157,-1.29731 -0.64638,0.81199 -0.78852,0.60665 -2.10392,0.82386 -0.94375,-0.94375 0.82386,-2.10392 0.60665,-0.78852 0.81199,-0.64638 -1.29731,-1.94157 -0.90791,0.50283 -0.96065,0.25871 -2.25906,-0.04398 -0.51075,-1.23307 1.56629,-1.6285 0.86222,-0.49634 0.99754,-0.28643 -0.45555,-2.29025 -1.03123,0.11711 -0.98653,-0.1286 -2.07026,-0.90514 v -1.33466 l 2.07026,-0.90514 0.98653,-0.1286 1.03123,0.11711 0.45555,-2.29025 -0.99754,-0.28643 -0.86222,-0.49634 -1.56629,-1.6285 0.51075,-1.23307 2.25906,-0.04398 0.96065,0.25871 0.90791,0.50283 1.29731,-1.94157 -0.81199,-0.64638 -0.60665,-0.78852 -0.82386,-2.10392 0.94375,-0.94375 2.10392,0.82386 0.78852,0.60665 0.64638,0.81199 1.94157,-1.29731 -0.50283,-0.90791 -0.25871,-0.96065 0.04398,-2.25906 1.23307,-0.51075 1.6285,1.56629 0.49634,0.86222 0.28643,0.99754 2.29025,-0.45555 -0.11711,-1.03123 0.1286,-0.98653 0.90514,-2.07026 h 1.33466 l 0.90514,2.07026 0.1286,0.98653 -0.11711,1.03123 2.29025,0.45555 0.28643,-0.99754 0.49634,-0.86222 1.6285,-1.56629 1.23307,0.51075 0.04398,2.25906 -0.25871,0.96065 -0.50283,0.90791 1.94157,1.29731 0.64638,-0.81199 0.78852,-0.60665 2.10392,-0.82386 0.94375,0.94375 -0.82386,2.10392 -0.60665,0.78852 -0.81199,0.64638 1.29731,1.94157 0.90791,-0.50283 0.96065,-0.25871 2.25906,0.04398 0.51075,1.23307 -1.56629,1.6285 -0.86222,0.49634 -0.99754,0.28643 z"
       style="fill:none;stroke:#000000;stroke-width:0.26458332"
       id="path3129" />
    <circle
       r="3"
       cy="0"
       cx="0"
       style="fill:none;stroke:#000000;stroke-width:0.26458332"
       id="path3131" />
  </g>
  <g
     id="g3327"
     inkscape:label="Gear30"
     transform="translate(32.944607,347.5349)">
    <path
       id="path3323"
       style="fill:none;stroke:#000000;stroke-width:0.26458332"
       d="m 28.01144,-1.88702 0.19086,-0.01285 1.83676,0.32559 2.03806,0.83497 v 1.47862 l -2.03806,0.83497 -1.83676,0.32559 -0.19086,-0.01285 -0.21978,2.09111 0.18936,0.0271 1.72893,0.70036 1.81992,1.24047 -0.30742,1.4463 -2.16713,0.39299 -1.86431,-0.06341 -0.18402,-0.05225 -0.64974,1.99972 0.17958,0.06588 1.54554,1.04452 1.52224,1.59174 -0.60141,1.35078 -2.20147,-0.06617 -1.81039,-0.44963 -0.16913,-0.08937 -1.05132,1.82093 0.16197,0.10178 1.29459,1.34303 1.15804,1.87344 -0.86911,1.19623 -2.13961,-0.52243 -1.67735,-0.81621 -0.14685,-0.12259 -1.40693,1.56256 0.13726,0.13323 0.98707,1.58284 0.74322,2.07328 -1.09882,0.98939 -1.98423,-0.95587 -1.471,-1.14711 -0.11815,-0.15044 -1.70106,1.23589 0.10656,0.15886 0.63641,1.75348 0.29592,2.1825 -1.28052,0.7393 -1.74214,-1.34752 -1.20035,-1.42788 -0.08429,-0.17172 -1.92085,0.85522 0.07121,0.17754 0.25793,1.84748 L 10.6155,30.27869 9.20925,30.73561 7.78535,29.05532 6.9081,27.40908 6.86135,27.22359 4.80467,27.66075 4.83741,27.84922 4.70559,29.70995 4.08823,31.82412 2.61771,31.97868 1.57428,30.03906 1.05848,28.2464 1.05131,28.05524 h -2.10262 l -0.00717,0.19116 -0.5158,1.79266 -1.04343,1.93962 -1.47052,-0.15456 -0.61736,-2.11417 -0.13182,-1.86073 0.03274,-0.18847 -2.05668,-0.43716 -0.04675,0.18549 -0.87725,1.64624 -1.4239,1.68029 -1.40625,-0.45692 -0.16431,-2.19632 0.25793,-1.84748 0.07121,-0.17754 -1.92085,-0.85522 -0.08429,0.17172 -1.20035,1.42788 -1.74214,1.34752 -1.28052,-0.7393 0.29592,-2.1825 0.63641,-1.75348 0.10656,-0.15886 -1.70106,-1.23589 -0.11815,0.15044 -1.471,1.14711 -1.98423,0.95587 -1.09882,-0.98939 0.74322,-2.07328 0.98707,-1.58284 0.13726,-0.13323 -1.40693,-1.56256 -0.14685,0.12259 -1.67735,0.81621 -2.13961,0.52243 -0.86911,-1.19623 1.15804,-1.87344 1.29459,-1.34303 0.16197,-0.10178 -1.05132,-1.82093 -0.16913,0.08937 -1.81039,0.44963 -2.20147,0.06617 -0.60141,-1.35078 1.52224,-1.59174 1.54554,-1.04452 0.17958,-0.06588 -0.64974,-1.99972 -0.18402,0.05225 -1.86431,0.06341 -2.16713,-0.39299 -0.30742,-1.4463 1.81992,-1.24047 1.72893,-0.70036 0.18936,-0.0271 -0.21978,-2.09111 -0.19086,0.01285 -1.83676,-0.32559 -2.03806,-0.83497 v -1.47862 l 2.03806,-0.83497 1.83676,-0.32559 0.19086,0.01285 0.21978,-2.09111 -0.18936,-0.0271 -1.72893,-0.70036 -1.81992,-1.24047 0.30742,-1.4463 2.16713,-0.39299 1.86431,0.06341 0.18402,0.05225 0.64974,-1.99972 -0.17958,-0.06588 -1.54554,-1.04452 -1.52224,-1.59174 0.60141,-1.35078 2.20147,0.06617 1.81039,0.44963 0.16913,0.08937 1.05132,-1.82093 -0.16197,-0.10178 -1.29459,-1.34303 -1.15804,-1.87344 0.86911,-1.19623 2.13961,0.52243 1.67735,0.81621 0.14685,0.12259 1.40693,-1.56256 -0.13726,-0.13323 -0.98707,-1.58284 -0.74322,-2.07328 1.09882,-0.98939 1.98423,0.95587 1.471,1.14711 0.11815,0.15044 1.70106,-1.23589 -0.10656,-0.15886 -0.63641,-1.75348 -0.29592,-2.1825 1.28052,-0.7393 1.74214,1.34752 1.20035,1.42788 0.08429,0.17172 1.92085,-0.85522 -0.07121,-0.17754 -0.25793,-1.84748 0.16431,-2.19632 1.40625,-0.45692 1.4239,1.68029 0.87725,1.64624 0.04675,0.18549 2.05668,-0.43716 -0.03274,-0.18847 0.13182,-1.86073 0.61736,-2.11417 1.47052,-0.15456 1.04343,1.93962 0.5158,1.79266 0.00717,0.19116 h 2.10262 l 0.00717,-0.19116 0.5158,-1.79266 1.04343,-1.93962 1.47052,0.15456 0.61736,2.11417 0.13182,1.86073 -0.03274,0.18847 2.05668,0.43716 0.04675,-0.18549 0.87725,-1.64624 1.4239,-1.68029 1.40625,0.45692 0.16431,2.19632 -0.25793,1.84748 -0.07121,0.17754 1.92085,0.85522 0.08429,-0.17172 1.20035,-1.42788 1.74214,-1.34752 1.28052,0.7393 -0.29592,2.1825 -0.63641,1.75348 -0.10656,0.15886 1.70106,1.23589 0.11815,-0.15044 1.471,-1.14711 1.98423,-0.95587 1.09882,0.98939 -0.74322,2.07328 -0.98707,1.58284 -0.13726,0.13323 1.40693,1.56256 0.14685,-0.12259 1.67735,-0.81621 2.13961,-0.52243 0.86911,1.19623 -1.15804,1.87344 -1.29459,1.34303 -0.16197,0.10178 1.05132,1.82093 0.16913,-0.08937 1.81039,-0.44963 2.20147,-0.06617 0.60141,1.35078 -1.52224,1.59174 -1.54554,1.04452 -0.17958,0.06588 0.64974,1.99972 0.18402,-0.05225 1.86431,-0.06341 2.16713,0.39299 0.30742,1.4463 -1.81992,1.24047 -1.72893,0.70036 -0.18936,0.0271 z"
       inkscape:connector-curvature="0" />
    <circle
       id="path3325"
       style="fill:none;stroke:#000000;stroke-width:0.26458332"
       cx="0"
       cy="0"
       r="2.5" />
  </g>
  <g
     transform="translate(32.632747,404.03672)"
     inkscape:label="Gear23"
     id="g3527">
    <path
       inkscape:connector-curvature="0"
       d="m 20.98336,-1.74985 0.61245,-0.05108 1.41198,0.22715 2.04898,0.86101 V 0.71277 L 23.00779,1.57378 21.59581,1.80093 20.98336,1.74985 20.67735,3.97628 21.28086,4.09234 22.5792,4.69201 24.3199,6.0739 23.93529,7.44657 21.73,7.72284 20.30909,7.56062 19.73314,7.34621 l -0.89535,2.0613 0.54982,0.27458 1.0884,0.92772 1.30332,1.80028 -0.74068,1.21801 -2.19806,-0.32896 -1.32444,-0.53956 -0.49675,-0.36185 -1.41828,1.7433 0.45535,0.41274 0.79774,1.18696 0.76928,2.08515 -1.04183,0.97301 -2.02779,-0.90978 -1.12976,-0.87689 -0.3807,-0.48246 -1.83603,1.29601 0.32711,0.52029 0.44792,1.35818 0.17819,2.21537 -1.26571,0.65585 -1.70714,-1.42314 -0.85129,-1.14918 -0.23642,-0.56728 -2.1176,0.7526 0.17462,0.58924 0.06487,1.42867 -0.42612,2.1813 L 4.40009,24.6777 3.14021,22.84676 2.63054,21.51052 2.55594,20.9005 0.31382,21.05386 0.32298,21.66836 0,23.06155 -0.99883,25.047 l -1.42221,-0.09729 -0.71917,-2.10295 -0.13027,-1.4242 0.09275,-0.60753 -2.20035,-0.45724 -0.15697,0.59419 -0.68688,1.25439 -1.49746,1.64234 -1.34323,-0.47739 -0.12513,-2.219 0.25881,-1.40653 0.25322,-0.55998 -1.9954,-1.03393 -0.31146,0.5298 -0.99983,1.02256 -1.88502,1.17743 -1.16463,-0.82208 0.47819,-2.17048 0.62869,-1.28454 0.39491,-0.4709 -1.64245,-1.53394 -0.44285,0.42612 -1.23864,0.71488 -2.13279,0.6252 -0.89964,-1.10581 1.04605,-1.96098 0.95193,-1.06728 0.50732,-0.34689 -1.1677,-1.92019 -0.54139,0.29084 -1.38558,0.35419 -2.22237,0.02659 -0.56794,-1.30752 1.53632,-1.60604 1.20459,-0.77088 0.58209,-0.19715 -0.60633,-2.16402 -0.59979,0.13399 -1.42976,-0.03277 -2.14713,-0.57398 -0.19411,-1.41227 1.91265,-1.13198 1.3679,-0.4173 0.61369,-0.0328 v -2.24736 l -0.61369,-0.0328 -1.3679,-0.4173 -1.91265,-1.13198 0.19411,-1.41227 2.14713,-0.57398 1.42976,-0.03277 0.59979,0.13399 0.60633,-2.16402 -0.58209,-0.19715 -1.20459,-0.77088 -1.53632,-1.60604 0.56794,-1.30752 2.22237,0.02659 1.38558,0.35419 0.54139,0.29084 1.1677,-1.92019 -0.50732,-0.34689 -0.95193,-1.06728 -1.04605,-1.96098 0.89964,-1.10581 2.13279,0.6252 1.23864,0.71488 0.44285,0.42612 1.64245,-1.53394 -0.39491,-0.4709 -0.62869,-1.28454 -0.47819,-2.17048 1.16463,-0.82208 1.88502,1.17743 0.99983,1.02256 0.31146,0.5298 1.9954,-1.03393 -0.25322,-0.55998 -0.25881,-1.40653 0.12513,-2.219 1.34323,-0.47739 1.49746,1.64234 0.68688,1.25439 0.15697,0.59419 2.20035,-0.45724 -0.09275,-0.60753 0.13027,-1.4242 0.71917,-2.10295 1.42221,-0.09729 0.99883,1.98545 0.32298,1.39319 -0.00916,0.6145 2.24212,0.15336 0.0746,-0.61002 0.50967,-1.33624 1.25988,-1.83094 1.39572,0.29003 0.42612,2.1813 -0.06487,1.42867 -0.17462,0.58924 2.1176,0.7526 0.23642,-0.56728 0.85129,-1.14918 1.70714,-1.42314 1.26571,0.65585 -0.17819,2.21537 -0.44792,1.35818 -0.32711,0.52029 1.83603,1.29601 0.3807,-0.48246 1.12976,-0.87689 2.02779,-0.90978 1.04183,0.97301 -0.76928,2.08515 -0.79774,1.18696 -0.45535,0.41274 1.41828,1.7433 0.49675,-0.36185 1.32444,-0.53956 2.19806,-0.32896 0.74068,1.21801 -1.30332,1.80028 -1.0884,0.92772 -0.54982,0.27458 0.89535,2.0613 0.57595,-0.21441 1.42091,-0.16222 2.20529,0.27627 0.38461,1.37267 -1.7407,1.38189 -1.29834,0.59967 -0.60351,0.11606 z"
       style="fill:none;stroke:#000000;stroke-width:0.26458332"
       id="path3523" />
    <circle
       r="2.5"
       cy="0"
       cx="0"
       style="fill:none;stroke:#000000;stroke-width:0.26458332"
       id="path3525" />
  </g>
  <g
     id="g3733"
     inkscape:label="Gear23"
     transform="translate(91.75389,403.78816)">
    <path
       id="path3729"
       style="fill:none;stroke:#000000;stroke-width:0.26458332"
       d="m 20.98336,-1.74985 0.61245,-0.05108 1.41198,0.22715 2.04898,0.86101 V 0.71277 L 23.00779,1.57378 21.59581,1.80093 20.98336,1.74985 20.67735,3.97628 21.28086,4.09234 22.5792,4.69201 24.3199,6.0739 23.93529,7.44657 21.73,7.72284 20.30909,7.56062 19.73314,7.34621 l -0.89535,2.0613 0.54982,0.27458 1.0884,0.92772 1.30332,1.80028 -0.74068,1.21801 -2.19806,-0.32896 -1.32444,-0.53956 -0.49675,-0.36185 -1.41828,1.7433 0.45535,0.41274 0.79774,1.18696 0.76928,2.08515 -1.04183,0.97301 -2.02779,-0.90978 -1.12976,-0.87689 -0.3807,-0.48246 -1.83603,1.29601 0.32711,0.52029 0.44792,1.35818 0.17819,2.21537 -1.26571,0.65585 -1.70714,-1.42314 -0.85129,-1.14918 -0.23642,-0.56728 -2.1176,0.7526 0.17462,0.58924 0.06487,1.42867 -0.42612,2.1813 L 4.40009,24.6777 3.14021,22.84676 2.63054,21.51052 2.55594,20.9005 0.31382,21.05386 0.32298,21.66836 0,23.06155 -0.99883,25.047 l -1.42221,-0.09729 -0.71917,-2.10295 -0.13027,-1.4242 0.09275,-0.60753 -2.20035,-0.45724 -0.15697,0.59419 -0.68688,1.25439 -1.49746,1.64234 -1.34323,-0.47739 -0.12513,-2.219 0.25881,-1.40653 0.25322,-0.55998 -1.9954,-1.03393 -0.31146,0.5298 -0.99983,1.02256 -1.88502,1.17743 -1.16463,-0.82208 0.47819,-2.17048 0.62869,-1.28454 0.39491,-0.4709 -1.64245,-1.53394 -0.44285,0.42612 -1.23864,0.71488 -2.13279,0.6252 -0.89964,-1.10581 1.04605,-1.96098 0.95193,-1.06728 0.50732,-0.34689 -1.1677,-1.92019 -0.54139,0.29084 -1.38558,0.35419 -2.22237,0.02659 -0.56794,-1.30752 1.53632,-1.60604 1.20459,-0.77088 0.58209,-0.19715 -0.60633,-2.16402 -0.59979,0.13399 -1.42976,-0.03277 -2.14713,-0.57398 -0.19411,-1.41227 1.91265,-1.13198 1.3679,-0.4173 0.61369,-0.0328 v -2.24736 l -0.61369,-0.0328 -1.3679,-0.4173 -1.91265,-1.13198 0.19411,-1.41227 2.14713,-0.57398 1.42976,-0.03277 0.59979,0.13399 0.60633,-2.16402 -0.58209,-0.19715 -1.20459,-0.77088 -1.53632,-1.60604 0.56794,-1.30752 2.22237,0.02659 1.38558,0.35419 0.54139,0.29084 1.1677,-1.92019 -0.50732,-0.34689 -0.95193,-1.06728 -1.04605,-1.96098 0.89964,-1.10581 2.13279,0.6252 1.23864,0.71488 0.44285,0.42612 1.64245,-1.53394 -0.39491,-0.4709 -0.62869,-1.28454 -0.47819,-2.17048 1.16463,-0.82208 1.88502,1.17743 0.99983,1.02256 0.31146,0.5298 1.9954,-1.03393 -0.25322,-0.55998 -0.25881,-1.40653 0.12513,-2.219 1.34323,-0.47739 1.49746,1.64234 0.68688,1.25439 0.15697,0.59419 2.20035,-0.45724 -0.09275,-0.60753 0.13027,-1.4242 0.71917,-2.10295 1.42221,-0.09729 0.99883,1.98545 0.32298,1.39319 -0.00916,0.6145 2.24212,0.15336 0.0746,-0.61002 0.50967,-1.33624 1.25988,-1.83094 1.39572,0.29003 0.42612,2.1813 -0.06487,1.42867 -0.17462,0.58924 2.1176,0.7526 0.23642,-0.56728 0.85129,-1.14918 1.70714,-1.42314 1.26571,0.65585 -0.17819,2.21537 -0.44792,1.35818 -0.32711,0.52029 1.83603,1.29601 0.3807,-0.48246 1.12976,-0.87689 2.02779,-0.90978 1.04183,0.97301 -0.76928,2.08515 -0.79774,1.18696 -0.45535,0.41274 1.41828,1.7433 0.49675,-0.36185 1.32444,-0.53956 2.19806,-0.32896 0.74068,1.21801 -1.30332,1.80028 -1.0884,0.92772 -0.54982,0.27458 0.89535,2.0613 0.57595,-0.21441 1.42091,-0.16222 2.20529,0.27627 0.38461,1.37267 -1.7407,1.38189 -1.29834,0.59967 -0.60351,0.11606 z"
       inkscape:connector-curvature="0" />
    <circle
       id="path3731"
       style="fill:none;stroke:#000000;stroke-width:0.26458332"
       cx="0"
       cy="0"
       r="3" />
  </g>
  <text
     xml:space="preserve"
     style="font-style:normal;font-variant:normal;font-weight:normal;font-stretch:normal;font-size:31.75px;line-height:125%;font-family:Loma;-inkscape-font-specification:Loma;letter-spacing:0px;word-spacing:0px;fill:#000000;fill-opacity:1;stroke:none;stroke-width:0.26458332px;stroke-linecap:butt;stroke-linejoin:miter;stroke-opacity:1"
     x="63.610146"
     y="379.6875"
     id="text3840"><tspan
       sodipodi:role="line"
       id="tspan3838"
       x="63.610146"
       y="379.6875"
       style="stroke-width:0.26458332px;font-size:3.52777778px">Mars</tspan></text>
  <text
     xml:space="preserve"
     style="font-style:normal;font-variant:normal;font-weight:normal;font-stretch:normal;font-size:31.75px;line-height:125%;font-family:Loma;-inkscape-font-specification:Loma;letter-spacing:0px;word-spacing:0px;fill:#000000;fill-opacity:1;stroke:none;stroke-width:0.26458332px;stroke-linecap:butt;stroke-linejoin:miter;stroke-opacity:1"
     x="65.770508"
     y="238.7395"
     id="text3840-9"><tspan
       sodipodi:role="line"
       id="tspan3838-3"
       x="65.770508"
       y="238.7395"
       style="font-size:3.52777767px;stroke-width:0.26458332px">Earth</tspan></text>
  <g
     transform="translate(94.788461,472.08961)"
     inkscape:label="Gear16"
     id="g3981">
    <path
       inkscape:connector-curvature="0"
       d="m 13.94781,-1.58396 1.03123,-0.11711 0.98653,0.1286 2.07026,0.90514 v 1.33466 l -2.07026,0.90514 -0.98653,0.1286 -1.03123,-0.11711 -0.45555,2.29025 0.99754,0.28643 0.86222,0.49634 1.56629,1.6285 -0.51075,1.23307 -2.25906,0.04398 -0.96065,-0.25871 -0.90791,-0.50283 -1.29731,1.94157 0.81199,0.64638 0.60665,0.78852 0.82386,2.10392 -0.94375,0.94375 -2.10392,-0.82386 -0.78852,-0.60665 -0.64638,-0.81199 -1.94157,1.29731 0.50283,0.90791 0.25871,0.96065 -0.04398,2.25906 -1.23307,0.51075 -1.6285,-1.56629 -0.49634,-0.86222 -0.28643,-0.99754 -2.29025,0.45555 0.11711,1.03123 -0.1286,0.98653 -0.90514,2.07026 h -1.33466 l -0.90514,-2.07026 -0.1286,-0.98653 0.11711,-1.03123 -2.29025,-0.45555 -0.28643,0.99754 -0.49634,0.86222 -1.6285,1.56629 -1.23307,-0.51075 -0.04398,-2.25906 0.25871,-0.96065 0.50283,-0.90791 -1.94157,-1.29731 -0.64638,0.81199 -0.78852,0.60665 -2.10392,0.82386 -0.94375,-0.94375 0.82386,-2.10392 0.60665,-0.78852 0.81199,-0.64638 -1.29731,-1.94157 -0.90791,0.50283 -0.96065,0.25871 -2.25906,-0.04398 -0.51075,-1.23307 1.56629,-1.6285 0.86222,-0.49634 0.99754,-0.28643 -0.45555,-2.29025 -1.03123,0.11711 -0.98653,-0.1286 -2.07026,-0.90514 v -1.33466 l 2.07026,-0.90514 0.98653,-0.1286 1.03123,0.11711 0.45555,-2.29025 -0.99754,-0.28643 -0.86222,-0.49634 -1.56629,-1.6285 0.51075,-1.23307 2.25906,-0.04398 0.96065,0.25871 0.90791,0.50283 1.29731,-1.94157 -0.81199,-0.64638 -0.60665,-0.78852 -0.82386,-2.10392 0.94375,-0.94375 2.10392,0.82386 0.78852,0.60665 0.64638,0.81199 1.94157,-1.29731 -0.50283,-0.90791 -0.25871,-0.96065 0.04398,-2.25906 1.23307,-0.51075 1.6285,1.56629 0.49634,0.86222 0.28643,0.99754 2.29025,-0.45555 -0.11711,-1.03123 0.1286,-0.98653 0.90514,-2.07026 h 1.33466 l 0.90514,2.07026 0.1286,0.98653 -0.11711,1.03123 2.29025,0.45555 0.28643,-0.99754 0.49634,-0.86222 1.6285,-1.56629 1.23307,0.51075 0.04398,2.25906 -0.25871,0.96065 -0.50283,0.90791 1.94157,1.29731 0.64638,-0.81199 0.78852,-0.60665 2.10392,-0.82386 0.94375,0.94375 -0.82386,2.10392 -0.60665,0.78852 -0.81199,0.64638 1.29731,1.94157 0.90791,-0.50283 0.96065,-0.25871 2.25906,0.04398 0.51075,1.23307 -1.56629,1.6285 -0.86222,0.49634 -0.99754,0.28643 z"
       style="fill:none;stroke:#000000;stroke-width:0.26458332"
       id="path3977" />
    <circle
       r="3"
       cy="0"
       cx="0"
       style="fill:none;stroke:#000000;stroke-width:0.26458332"
       id="path3979" />
  </g>
  <g
     id="g4207"
     inkscape:label="Gear42"
     transform="translate(26.151297,472.91693)">
    <path
       id="path4203"
       style="fill:none;stroke:#000000;stroke-width:0.26458332"
       d="m 40.05524,-2.03792 2.02771,0.46329 2.02815,0.8085 v 1.53226 l -2.02815,0.8085 -2.02771,0.46329 -0.14365,1.91684 1.93602,0.76033 1.88499,1.10176 -0.22837,1.51514 -2.126,0.49719 -2.07411,0.1559 -0.42774,1.87403 1.80107,1.04038 1.69974,1.37039 -0.45164,1.46418 -2.17636,0.17478 -2.07418,-0.15497 -0.70227,1.78934 1.6259,1.2972 1.4765,1.60842 -0.66482,1.38052 -2.1781,-0.15155 -2.02792,-0.46238 -0.96111,1.66469 1.4144,1.52504 1.22029,1.81051 -0.86315,1.26601 -2.13119,-0.47448 -1.93635,-0.75946 -1.19848,1.50285 1.1713,1.71881 0.93681,1.97217 -1.0422,1.12322 -2.03666,-0.78682 -1.80153,-1.03958 -1.40909,1.30744 0.90205,1.87419 0.63241,2.08976 -1.19796,0.95535 -1.89665,-1.08158 -1.62647,-1.29647 -1.58821,1.08282 0.61264,1.9877 0.31389,2.16068 -1.32698,0.76613 -1.71426,-1.35218 -1.41507,-1.52441 -1.73186,0.83402 0.30954,2.05681 -0.01165,2.18333 -1.42633,0.55979 -1.49359,-1.59257 -1.17206,-1.71828 -1.83683,0.56658 -4.6e-4,2.07996 -0.33693,2.15721 L 9.06872,43.17562 7.82918,41.37823 6.9263,39.50445 5.02555,39.79094 4.71509,41.84761 4.06041,43.9305 2.53244,44.04501 1.57463,42.08295 0.96111,40.09553 h -1.92222 l -0.61352,1.98742 -0.95781,1.96206 -1.52797,-0.11451 -0.65468,-2.08289 -0.31046,-2.05667 -1.90075,-0.28649 -0.90288,1.87378 -1.23954,1.79739 -1.49384,-0.34096 -0.33693,-2.15721 -4.6e-4,-2.07996 -1.83683,-0.56658 -1.17206,1.71828 -1.49359,1.59257 -1.42633,-0.55979 -0.01165,-2.18333 0.30954,-2.05681 -1.73186,-0.83402 -1.41507,1.52441 -1.71426,1.35218 -1.32698,-0.76613 0.31389,-2.16068 0.61264,-1.9877 -1.58821,-1.08282 -1.62647,1.29647 -1.89665,1.08158 -1.19796,-0.95535 0.63241,-2.08976 0.90205,-1.87419 -1.40909,-1.30744 -1.80153,1.03958 -2.03666,0.78682 -1.0422,-1.12322 0.93681,-1.97217 1.1713,-1.71881 -1.19848,-1.50285 -1.93635,0.75946 -2.13119,0.47448 -0.86315,-1.26601 1.22029,-1.81051 1.4144,-1.52504 -0.96111,-1.66469 -2.02792,0.46238 -2.1781,0.15155 -0.66482,-1.38052 1.4765,-1.60842 1.6259,-1.2972 -0.70227,-1.78934 -2.07418,0.15497 -2.17636,-0.17478 -0.45164,-1.46418 1.69974,-1.37039 1.80107,-1.04038 -0.42774,-1.87403 -2.07411,-0.1559 -2.126,-0.49719 -0.22837,-1.51514 1.88499,-1.10176 1.93602,-0.76033 -0.14365,-1.91684 -2.02771,-0.46329 -2.02815,-0.8085 v -1.53226 l 2.02815,-0.8085 2.02771,-0.46329 0.14365,-1.91684 -1.93602,-0.76033 -1.88499,-1.10176 0.22837,-1.51514 2.126,-0.49719 2.07411,-0.1559 0.42774,-1.87403 -1.80107,-1.04038 -1.69974,-1.37039 0.45164,-1.46418 2.17636,-0.17478 2.07418,0.15497 0.70227,-1.78934 -1.6259,-1.2972 -1.4765,-1.60842 0.66482,-1.38052 2.1781,0.15155 2.02792,0.46238 0.96111,-1.66469 -1.4144,-1.52504 -1.22029,-1.81051 0.86315,-1.26601 2.13119,0.47448 1.93635,0.75946 1.19848,-1.50285 -1.1713,-1.71881 -0.93681,-1.97217 1.0422,-1.12322 2.03666,0.78682 1.80153,1.03958 1.40909,-1.30744 -0.90205,-1.87419 -0.63241,-2.08976 1.19796,-0.95535 1.89665,1.08158 1.62647,1.29647 1.58821,-1.08282 -0.61264,-1.9877 -0.31389,-2.16068 1.32698,-0.76613 1.71426,1.35218 1.41507,1.52441 1.73186,-0.83402 -0.30954,-2.05681 0.01165,-2.18333 1.42633,-0.55979 1.49359,1.59257 1.17206,1.71828 1.83683,-0.56658 4.6e-4,-2.07996 0.33693,-2.15721 1.49384,-0.34096 1.23954,1.79739 0.90288,1.87378 1.90075,-0.28649 0.31046,-2.05667 0.65468,-2.08289 1.52797,-0.11451 0.95781,1.96206 0.61352,1.98742 h 1.92222 l 0.61352,-1.98742 0.95781,-1.96206 1.52797,0.11451 0.65468,2.08289 0.31046,2.05667 1.90075,0.28649 0.90288,-1.87378 1.23954,-1.79739 1.49384,0.34096 0.33693,2.15721 4.6e-4,2.07996 1.83683,0.56658 1.17206,-1.71828 1.49359,-1.59257 1.42633,0.55979 0.01165,2.18333 -0.30954,2.05681 1.73186,0.83402 1.41507,-1.52441 1.71426,-1.35218 1.32698,0.76613 -0.31389,2.16068 -0.61264,1.9877 1.58821,1.08282 1.62647,-1.29647 1.89665,-1.08158 1.19796,0.95535 -0.63241,2.08976 -0.90205,1.87419 1.40909,1.30744 1.80153,-1.03958 2.03666,-0.78682 1.0422,1.12322 -0.93681,1.97217 -1.1713,1.71881 1.19848,1.50285 1.93635,-0.75946 2.13119,-0.47448 0.86315,1.26601 -1.22029,1.81051 -1.4144,1.52504 0.96111,1.66469 2.02792,-0.46238 2.1781,-0.15155 0.66482,1.38052 -1.4765,1.60842 -1.6259,1.2972 0.70227,1.78934 2.07418,-0.15497 2.17636,0.17478 0.45164,1.46418 -1.69974,1.37039 -1.80107,1.04038 0.42774,1.87403 2.07411,0.1559 2.126,0.49719 0.22837,1.51514 -1.88499,1.10176 -1.93602,0.76033 z"
       inkscape:connector-curvature="0" />
    <circle
       id="path4205"
       style="fill:none;stroke:#000000;stroke-width:0.26458332"
       cx="0"
       cy="0"
       r="2.5" />
  </g>
  <g
     transform="translate(28.780175,552.92031)"
     inkscape:label="Gear17"
     id="g4439">
    <path
       inkscape:connector-curvature="0"
       d="m 14.95364,-1.61077 0.97176,-0.10468 1.04738,0.14269 2.06608,0.89702 v 1.35148 l -2.06608,0.89702 -1.04738,0.14269 -0.97176,-0.10468 -0.42791,2.2891 0.94396,0.25344 0.9251,0.51141 1.60252,1.5828 -0.48821,1.26022 -2.2506,0.09009 -1.0282,-0.2453 -0.86833,-0.44865 -1.22593,1.97994 0.78866,0.57732 0.6779,0.81107 0.92253,2.05481 -0.91049,0.99875 -2.13116,-0.729 -0.87016,-0.60016 -0.64762,-0.73203 -1.85838,1.40338 0.52685,0.82323 0.33913,1.00118 0.11795,2.24931 -1.2098,0.60241 L 6.15754,15.89445 5.56295,15.02048 5.2235,14.10393 2.98365,14.74123 3.17754,15.69918 3.1321,16.75526 2.42954,18.89529 1.08383,19.01999 0,17.04549 l -0.23872,-1.02974 0.01456,-0.97728 -2.31881,-0.21487 -0.16526,0.96331 -0.42387,0.96835 -1.42819,1.74173 -1.29989,-0.36985 -0.29736,-2.23269 0.14938,-1.04645 0.36662,-0.90602 -2.08461,-1.03801 -0.50209,0.83856 -0.74506,0.74984 -1.96092,1.10819 -1.07851,-0.81445 0.52925,-2.18934 0.51732,-0.92182 0.66915,-0.7124 -1.56887,-1.72097 -0.7711,0.60057 -0.96562,0.43006 -2.22883,0.32498 -0.71147,-1.14905 1.2844,-1.85031 0.81538,-0.67269 0.88132,-0.42257 -0.84124,-2.1715 -0.93599,0.28146 -1.05576,0.05219 -2.19573,-0.5021 -0.24833,-1.32847 1.86607,-1.26139 1.00333,-0.33272 0.97445,-0.07566 v -2.32876 l -0.97445,-0.07566 -1.00333,-0.33272 -1.86607,-1.26139 0.24833,-1.32847 2.19573,-0.5021 1.05576,0.05219 0.93599,0.28146 0.84124,-2.1715 -0.88132,-0.42257 -0.81538,-0.67269 -1.2844,-1.85031 0.71147,-1.14905 2.22883,0.32498 0.96562,0.43006 0.7711,0.60057 1.56887,-1.72097 -0.66915,-0.7124 -0.51732,-0.92182 -0.52925,-2.18934 1.07851,-0.81445 1.96092,1.10819 0.74506,0.74984 0.50209,0.83856 2.08461,-1.03801 -0.36662,-0.90602 -0.14938,-1.04645 0.29736,-2.23269 1.29989,-0.36985 1.42819,1.74173 0.42387,0.96835 0.16526,0.96331 2.31881,-0.21487 -0.01456,-0.97728 L 0,-17.04549 l 1.08383,-1.9745 1.34571,0.1247 0.70256,2.14003 0.04544,1.05608 -0.19389,0.95795 2.23985,0.6373 0.33945,-0.91655 0.59459,-0.87397 1.72391,-1.44964 1.2098,0.60241 -0.11795,2.24931 -0.33913,1.00118 -0.52685,0.82323 1.85838,1.40338 0.64762,-0.73203 0.87016,-0.60016 2.13116,-0.729 0.91049,0.99875 -0.92253,2.05481 -0.6779,0.81107 -0.78866,0.57732 1.22593,1.97994 0.86833,-0.44865 1.0282,-0.2453 2.2506,0.09009 0.48821,1.26022 -1.60252,1.5828 -0.9251,0.51141 -0.94396,0.25344 z"
       style="fill:none;stroke:#000000;stroke-width:0.26458332"
       id="path4435" />
    <circle
       r="2.5"
       cy="0"
       cx="0"
       style="fill:none;stroke:#000000;stroke-width:0.26458332"
       id="path4437" />
  </g>
  <g
     id="g4677"
     inkscape:label="Gear41"
     transform="translate(96.942998,540.83204)">
    <path
       id="path4673"
       style="fill:none;stroke:#000000;stroke-width:0.26458332"
       d="m 39.05163,-2.03027 2.02793,0.45566 2.02874,0.81018 v 1.52886 l -2.02874,0.81018 -2.02793,0.45566 -0.14775,1.92446 1.9346,0.75987 1.8813,1.11038 -0.23338,1.51094 -2.12864,0.49101 -2.07372,0.14075 -0.43978,1.87935 1.79593,1.04629 1.68975,1.38454 -0.46129,1.45761 -2.17864,0.16031 -2.0709,-0.17745 -0.72151,1.7902 1.61517,1.30817 1.4586,1.62625 -0.67839,1.37011 -2.17758,-0.17413 -2.01955,-0.49149 -0.98632,1.65907 1.39655,1.5394 1.19325,1.82985 -0.87958,1.2505 -2.12548,-0.5045 -1.92085,-0.79401 -1.22802,1.48907 1.1452,1.73454 0.89994,1.99055 -1.06016,1.10157 -2.02356,-0.82304 -1.77713,-1.07792 -1.44094,1.28416 0.867,1.88903 0.58554,2.10459 -1.21589,0.92684 -1.87421,-1.12229 -1.59176,-1.33657 -1.62008,1.04916 0.56849,1.99923 0.25741,2.16931 -1.34312,0.73037 -1.68093,-1.39523 -1.36908,-1.56388 -1.76124,0.78955 0.25664,2.06258 -0.07675,2.18319 L 13.8519,40.82934 12.40365,39.19386 11.28934,37.43932 9.42822,37.95076 9.36699,40.02835 8.95788,42.17423 7.45699,42.46532 6.27537,40.62793 5.44195,38.72386 3.52456,38.94521 3.14692,40.9891 2.41504,43.04738 0.8873,43.10594 0,41.10972 l -0.533,-2.00898 -1.9287,-0.07393 -0.68522,1.96229 -1.0375,1.92244 -1.51877,-0.17533 -0.57218,-2.10828 -0.22008,-2.0668 -1.89481,-0.36748 -0.97673,1.8347 -1.31881,1.74154 -1.47421,-0.40512 -0.24364,-2.17091 0.098,-2.07617 -1.81652,-0.65242 -1.24535,1.6641 -1.56919,1.51981 -1.39509,-0.62541 0.0906,-2.18265 0.41377,-2.03689 -1.69563,-0.92205 -1.48478,1.45449 -1.7828,1.26246 -1.28327,-0.83103 0.42272,-2.14325 0.71985,-1.94985 -1.53501,-1.17009 -1.6894,1.2108 -1.95462,0.97552 -1.14138,-1.01719 0.74493,-2.0536 1.00906,-1.81711 -1.33841,-1.39069 -1.85443,0.93872 -2.08062,0.66572 -0.97273,-1.1795 1.04968,-1.91582 1.27462,-1.64179 -1.11044,-1.5787 -1.97599,0.64464 -2.15786,0.34032 -0.78128,-1.31417 1.32982,-1.73313 1.5103,-1.42798 -0.85643,-1.7297 -2.05124,0.33545 -2.18453,0.0069 -0.57151,-1.41802 1.5788,-1.50983 1.71058,-1.18069 -0.58236,-1.84017 -2.0784,0.0184 -2.15998,-0.32662 -0.34836,-1.48865 1.79077,-1.25112 1.87076,-0.90574 -0.29463,-1.9075 -2.05685,-0.29909 -2.08481,-0.6525 -0.11704,-1.52438 1.96077,-0.96311 1.9871,-0.60955 v -1.93012 l -1.9871,-0.60955 -1.96077,-0.96311 0.11704,-1.52438 2.08481,-0.6525 2.05685,-0.29909 0.29463,-1.9075 -1.87076,-0.90574 -1.79077,-1.25112 0.34836,-1.48865 2.15998,-0.32662 2.0784,0.0184 0.58236,-1.84017 -1.71058,-1.18069 -1.5788,-1.50983 0.57151,-1.41802 2.18453,0.0069 2.05124,0.33545 0.85643,-1.7297 -1.5103,-1.42798 -1.32982,-1.73313 0.78128,-1.31417 2.15786,0.34032 1.97599,0.64464 1.11044,-1.5787 -1.27462,-1.64179 -1.04968,-1.91582 0.97273,-1.1795 2.08062,0.66572 1.85443,0.93872 1.33841,-1.39069 -1.00906,-1.81711 -0.74493,-2.0536 1.14138,-1.01719 1.95462,0.97552 1.6894,1.2108 1.53501,-1.17009 -0.71985,-1.94985 -0.42272,-2.14325 1.28327,-0.83103 1.7828,1.26246 1.48478,1.45449 1.69563,-0.92205 -0.41377,-2.03689 -0.0906,-2.18265 1.39509,-0.62541 1.56919,1.51981 1.24535,1.6641 1.81652,-0.65242 -0.098,-2.07617 0.24364,-2.17091 1.47421,-0.40512 1.31881,1.74154 0.97673,1.8347 1.89481,-0.36748 0.22008,-2.0668 0.57218,-2.10828 1.51877,-0.17533 1.0375,1.92244 0.68522,1.96229 1.9287,-0.07393 0.533,-2.00898 0.8873,-1.99622 1.52774,0.05856 0.73188,2.05828 0.37764,2.04389 1.91739,0.22135 0.83342,-1.90407 1.18162,-1.83739 1.50089,0.29109 0.40911,2.14588 0.06123,2.07759 1.86112,0.51144 1.11431,-1.75454 1.44825,-1.63548 1.43887,0.51678 0.07675,2.18319 -0.25664,2.06258 1.76124,0.78955 1.36908,-1.56388 1.68093,-1.39523 1.34312,0.73037 -0.25741,2.16931 -0.56849,1.99923 1.62008,1.04916 1.59176,-1.33657 1.87421,-1.12229 1.21589,0.92684 -0.58554,2.10459 -0.867,1.88903 1.44094,1.28416 1.77713,-1.07792 2.02356,-0.82304 1.06016,1.10157 -0.89994,1.99055 -1.1452,1.73454 1.22802,1.48907 1.92085,-0.79401 2.12548,-0.5045 0.87958,1.2505 -1.19325,1.82985 -1.39655,1.5394 0.98632,1.65907 2.01955,-0.49149 2.17758,-0.17413 0.67839,1.37011 -1.4586,1.62625 -1.61517,1.30817 0.72151,1.7902 2.0709,-0.17745 2.17864,0.16031 0.46129,1.45761 -1.68975,1.38454 -1.79593,1.04629 0.43978,1.87935 2.07372,0.14075 2.12864,0.49101 0.23338,1.51094 -1.8813,1.11038 -1.9346,0.75987 z"
       inkscape:connector-curvature="0" />
    <circle
       id="path4675"
       style="fill:none;stroke:#000000;stroke-width:0.26458332"
       cx="0"
       cy="0"
       r="3" />
  </g>
  <text
     xml:space="preserve"
     style="font-style:normal;font-variant:normal;font-weight:normal;font-stretch:normal;font-size:31.75px;line-height:125%;font-family:Loma;-inkscape-font-specification:Loma;letter-spacing:0px;word-spacing:0px;fill:#000000;fill-opacity:1;stroke:none;stroke-width:0.26458332px;stroke-linecap:butt;stroke-linejoin:miter;stroke-opacity:1"
     x="36.354156"
     y="528.69354"
     id="text3840-1"><tspan
       sodipodi:role="line"
       id="tspan3838-9"
       x="36.354156"
       y="528.69354"
       style="font-size:3.52777767px;stroke-width:0.26458332px">Jupiter</tspan></text>
</svg>
